<svg width="96" height="16" viewBox="0 0 96 16" fill="none" xmlns="http://www.w3.org/2000/svg">
<path d="M8 2L9.854 5.94953L14 6.58675L11 9.65931L11.708 14L8 11.9495L4.292 14L5 9.65931L2 6.58675L6.146 5.94953L8 2Z" fill="#CD9663" stroke="#CD9663" stroke-width="2" stroke-linecap="round" stroke-linejoin="round"/>
<path d="M28 2L29.854 5.94953L34 6.58675L31 9.65931L31.708 14L28 11.9495L24.292 14L25 9.65931L22 6.58675L26.146 5.94953L28 2Z" fill="#CD9663" stroke="#CD9663" stroke-width="2" stroke-linecap="round" stroke-linejoin="round"/>
<path d="M48 2L49.854 5.94953L54 6.58675L51 9.65931L51.708 14L48 11.9495L44.292 14L45 9.65931L42 6.58675L46.146 5.94953L48 2Z" fill="#CD9663" stroke="#CD9663" stroke-width="2" stroke-linecap="round" stroke-linejoin="round"/>
<path d="M68 2L69.854 5.94953L74 6.58675L71 9.65931L71.708 14L68 11.9495L64.292 14L65 9.65931L62 6.58675L66.146 5.94953L68 2Z" fill="#CD9663" stroke="#CD9663" stroke-width="2" stroke-linecap="round" stroke-linejoin="round"/>
<path d="M88 2L89.854 5.94953L94 6.58675L91 9.65931L91.708 14L88 11.9495L84.292 14L85 9.65931L82 6.58675L86.146 5.94953L88 2Z" fill="#CD9663" stroke="#CD9663" stroke-width="2" stroke-linecap="round" stroke-linejoin="round"/>
</svg>
