<svg width="14" height="13" viewBox="0 0 14 13" fill="none" xmlns="http://www.w3.org/2000/svg">
<path d="M6.00501 8.11592V9.80447C6.00501 10.8333 5.74869 11.6262 5.23607 12.183C4.73566 12.7277 3.99113 13 3.0025 13C2.01387 13 1.26325 12.7277 0.750626 12.183C0.250209 11.6262 0 10.8333 0 9.80447V3.19553C0 2.16667 0.250209 1.37989 0.750626 0.835195C1.26325 0.278398 2.01387 0 3.0025 0C3.99113 0 4.73566 0.278398 5.23607 0.835195C5.74869 1.37989 6.00501 2.16667 6.00501 3.19553V4.43017H4.10098V3.06843C4.10098 2.60847 4.00334 2.28771 3.80805 2.10615C3.62497 1.91248 3.37476 1.81564 3.05743 1.81564C2.74009 1.81564 2.48378 1.91248 2.28849 2.10615C2.10541 2.28771 2.01387 2.60847 2.01387 3.06843V9.93156C2.01387 10.3915 2.10541 10.7123 2.28849 10.8939C2.48378 11.0754 2.74009 11.1662 3.05743 11.1662C3.37476 11.1662 3.62497 11.0754 3.80805 10.8939C4.00334 10.7123 4.10098 10.3915 4.10098 9.93156V8.11592H6.00501Z" fill="#CD9663"/>
<path d="M9.66102 13H7.64714V0H14V13H11.9495V1.85547H9.66102V13Z" fill="#CD9663"/>
</svg>
