<?xml version="1.0" encoding="utf-8"?><svg viewBox="0 0 1120 500" xmlns="http://www.w3.org/2000/svg" xmlns:xlink="http://www.w3.org/1999/xlink"><style>:root>svg{display:none}:root>svg:target{display:block}</style><svg fill="none" viewBox="0 0 1120 500" id="add-publication-bg" xmlns="http://www.w3.org/2000/svg"><g clip-path="url(#aaa)"><path fill-rule="evenodd" clip-rule="evenodd" d="M36.88 349.251c-7.983-7.275-23.708-21.385-54.652-48.695-5.449-4.809-9.201-5.867-11.563-5.92-2.402-.054-4.207.882-6.14 1.997-.898.519-2.608 2.251-3.59 4.738-.918 2.323-1.017 4.808.349 7.175l41.304 71.54-3.794 2.192-3.795 2.19-41.304-71.541c-2.983-5.165-2.548-10.519-.896-14.7 1.587-4.016 4.483-7.452 7.379-9.124 2.068-1.195 5.72-3.29 10.742-3.178 5.064.114 10.705 2.42 17.133 8.093 30.953 27.319 46.72 41.464 54.754 48.787 4.014 3.658 6.119 5.632 7.231 6.703.553.533.888.869 1.1 1.092.105.111.208.221.303.333a5.199 5.199 0 0 1 .305.399l.079.12.044.072.024.04c.013.021.025.042-3.77 2.233 3.795-2.191 3.808-2.169 3.82-2.148l.022.041.04.074a5.534 5.534 0 0 1 .153.324c.045.105.08.198.104.268.05.138.094.282.138.429.087.295.21.753.395 1.498.372 1.499 1.029 4.309 2.19 9.614 2.324 10.619 6.691 31.346 14.874 71.812 1.699 8.403.875 14.442-1.558 18.884-2.414 4.406-6.055 6.52-8.123 7.715-2.896 1.672-7.32 2.461-11.592 1.828-4.447-.66-9.3-2.961-12.283-8.126L-5 384.468l3.795-2.19 3.794-2.192 41.305 71.542c1.366 2.366 3.568 3.523 6.038 3.89 2.646.392 5-.222 5.899-.741 1.932-1.116 3.645-2.211 4.8-4.318 1.135-2.072 2.094-5.851.654-12.975-8.18-40.453-12.536-61.126-14.845-71.677-1.156-5.279-1.793-7.997-2.136-9.38a61.198 61.198 0 0 0-.093-.371 49.087 49.087 0 0 0-.274-.265c-1.026-.989-3.062-2.9-7.056-6.54Z" fill="#FAF3EE"/><path fill-rule="evenodd" clip-rule="evenodd" d="M78.608 328.821c-2.197-.326-5.054.253-8.27 2.11-2.096 1.21-4.768.505-5.968-1.575-1.201-2.079-.475-4.746 1.62-5.956 4.374-2.525 9.245-3.897 13.964-3.197 4.886.726 9.033 3.594 11.808 8.4 2.774 4.805 3.185 9.831 1.37 14.425-1.753 4.437-5.377 7.97-9.75 10.495L70.1 361.19c-6.444 3.721-12.99 2.336-17.364.487a30.57 30.57 0 0 1-6.887-4.084c-.184-.145-.33-.266-.438-.356l-.13-.111-.043-.036-.015-.014-.006-.005c-.002-.001-.006-.005 2.907-3.274 2.912-3.269 2.91-3.27 2.91-3.271l-.006-.005.044.037c.05.041.133.111.25.204a21.845 21.845 0 0 0 4.877 2.891c3.156 1.334 6.512 1.763 9.554.007l13.28-7.668c3.217-1.857 5.147-4.041 5.963-6.107.754-1.91.75-4.176-.823-6.901-1.574-2.725-3.533-3.861-5.565-4.163Z" fill="#FAF3EE"/><path d="m2.588 380.086-3.794 2.192-3.795 2.19m7.589-4.382-41.304-71.54c-1.366-2.367-1.267-4.852-.35-7.175.983-2.487 2.693-4.219 3.591-4.738 1.933-1.115 3.738-2.051 6.14-1.997 2.362.053 6.114 1.111 11.563 5.92 30.944 27.31 46.67 41.42 54.652 48.695 3.994 3.64 6.03 5.551 7.056 6.54l.274.265.093.371c.343 1.383.98 4.101 2.136 9.38 2.309 10.551 6.665 31.224 14.845 71.677 1.44 7.124.48 10.903-.654 12.975-1.155 2.107-2.868 3.202-4.8 4.318-.899.519-3.253 1.133-5.899.741-2.47-.367-4.672-1.524-6.038-3.89L2.588 380.086Zm-7.59 4.382-41.303-71.541c-2.983-5.165-2.548-10.519-.896-14.7 1.587-4.016 4.483-7.452 7.379-9.124 2.068-1.195 5.72-3.29 10.742-3.178 5.064.114 10.705 2.42 17.133 8.093 30.953 27.319 46.72 41.464 54.754 48.787 4.014 3.658 6.119 5.632 7.231 6.703.553.533.888.869 1.1 1.092.105.111.208.221.303.333a5.349 5.349 0 0 1 .305.399l.079.12.044.072.024.04c.013.021.025.042-3.77 2.233M-5 384.468l41.304 71.542c2.983 5.165 7.836 7.466 12.283 8.126 4.271.633 8.696-.156 11.592-1.828 2.068-1.195 5.709-3.309 8.123-7.715 2.433-4.442 3.257-10.481 1.558-18.884-8.182-40.466-12.55-61.193-14.874-71.812-1.161-5.305-1.818-8.115-2.19-9.614a37.494 37.494 0 0 0-.395-1.498 7.821 7.821 0 0 0-.138-.429 4.883 4.883 0 0 0-.257-.592l-.04-.074-.022-.041c-.012-.021-.025-.043-3.82 2.148m0 0c-2.912 3.269-2.908 3.273-2.906 3.274l.006.005.015.014.043.036.13.111a28.506 28.506 0 0 0 1.97 1.486 30.57 30.57 0 0 0 5.355 2.954c4.374 1.849 10.92 3.234 17.364-.487l13.282-7.667c4.373-2.525 7.997-6.058 9.75-10.495 1.815-4.594 1.404-9.62-1.37-14.425-2.775-4.806-6.922-7.674-11.808-8.4-4.72-.7-9.59.672-13.964 3.197-2.095 1.21-2.821 3.877-1.62 5.956 1.2 2.08 3.872 2.785 5.968 1.575 3.216-1.857 6.073-2.436 8.27-2.11 2.032.302 3.991 1.438 5.564 4.163 1.574 2.725 1.578 4.991.824 6.901-.816 2.066-2.746 4.25-5.962 6.107l-13.281 7.668c-3.042 1.756-6.398 1.327-9.554-.007a21.845 21.845 0 0 1-5.127-3.095l-.044-.037.006.005c0 .001.002.002-2.91 3.271Z" stroke="#FAF3EE" stroke-width="2"/><path d="M1011.06 49.604c11.29 10.014 8.38 20.882 9.97 23.637 3.77 3.338 8.06 5.022 12.28 6.359 4.32.95 8.88 1.638 13.81.63 2.75-1.59 5.66-12.458 20.45-15.484 24.65-5.043 68.27-2.672 76.69-16.72 0 0 3.92-5.94 1.75-6.52-6.52-1.747-10.87-2.913-15.8-1.904-1.96.941-4.07 1.941-6.32 2.966-19.14 8.738-48.3 19.276-83.41 10.26-34.92-9.748-54.894-33.45-67.108-50.592a371.22 371.22 0 0 1-3.988-5.728c-3.765-3.338-8.113-4.503-14.631-6.25-2.172-.581-1.747 6.52-1.747 6.52.27 16.379 39.234 36.136 58.054 52.826Z" fill="#FAF3EE"/><path d="m1021.03 73.24-.33.375-.06-.054-.04-.07.43-.25Zm-9.97-23.636-.33.374.33-.374ZM953.006-3.22l.499-.03v.01l.001.011-.5.009Zm80.304 82.82-.11.489-.02-.005-.03-.007.16-.476ZM969.384-3.49l.331-.375.046.04.035.052-.412.282Zm3.988 5.727.408-.29-.408.29Zm67.108 50.592-.13.484-.01-.002.14-.482Zm6.64 27.401.25.433-.07.041-.08.016-.1-.49Zm20.45-15.483.1.49-.1-.49Zm76.69-16.72-.43-.258.01-.01v-.008l.42.275Zm-14.05-8.424-.21-.45.05-.028.06-.012.1.49Zm-6.32 2.966.21.455-.21-.455Zm-108.73 59.379a.494.494 0 0 1 .61-.353c.27.071.42.345.35.612l-.96-.259Zm5.44-28.456c-.24-.425-.38-.969-.48-1.566-.1-.603-.16-1.313-.23-2.091-.12-1.568-.26-3.467-.69-5.59-.87-4.225-2.92-9.342-8.47-14.266l.66-.748c5.74 5.09 7.88 10.414 8.79 14.814.44 2.192.58 4.152.71 5.709.06.784.12 1.454.21 2.011.1.564.21.962.37 1.227l-.87.5Zm-9.87-23.513c-4.68-4.152-10.63-8.502-16.931-12.957-6.295-4.45-12.951-9.004-19.022-13.546-6.07-4.542-11.586-9.092-15.604-13.545-4.006-4.44-6.597-8.861-6.667-13.143l1-.017c.064 3.907 2.445 8.097 6.409 12.49 3.952 4.38 9.404 8.883 15.461 13.414 6.057 4.531 12.688 9.069 19 13.53 6.304 4.455 12.284 8.834 17.014 13.026l-.66.748Zm22.42 30.098c-4.23-1.343-8.6-3.052-12.45-6.461l.67-.748c3.68 3.266 7.89 4.925 12.09 6.256l-.31.953ZM953.006-3.22l-.5.03v-.007l-.001-.016a2.049 2.049 0 0 1-.003-.062l-.01-.23a26.324 26.324 0 0 1-.019-.811 23.72 23.72 0 0 1 .094-2.43c.084-.864.24-1.766.542-2.428.15-.332.358-.651.657-.862a1.295 1.295 0 0 1 1.116-.188l-.259.966c-.132-.035-.209-.012-.28.039-.094.066-.209.206-.324.459-.23.505-.375 1.27-.456 2.11a22.498 22.498 0 0 0-.09 2.325c.003.322.011.593.018.782l.01.218a1.584 1.584 0 0 0 .004.07v.004l-.499.03Zm1.876-7.004c6.492 1.74 10.965 2.929 14.833 6.36l-.663.747c-3.66-3.245-7.885-4.387-14.429-6.14l.259-.967Zm14.914 6.45a371.705 371.705 0 0 0 3.984 5.72l-.815.581a371.485 371.485 0 0 1-3.994-5.735l.825-.565Zm3.984 5.72c12.19 17.11 32.08 40.7 66.83 50.401l-.27.964c-35.08-9.794-55.139-33.61-67.375-50.784l.815-.58Zm73.09 77.851c.26-.152.56-.439.92-.88.36-.438.75-.988 1.19-1.636.89-1.285 1.99-2.912 3.48-4.586 2.98-3.36 7.49-6.9 15.01-8.438l.2.98c-7.27 1.487-11.6 4.894-14.46 8.122-1.44 1.62-2.51 3.197-3.4 4.491-.45.642-.86 1.226-1.24 1.7-.39.467-.78.868-1.2 1.113l-.5-.866Zm20.6-15.54c6.19-1.267 13.56-2.066 21.25-2.773 7.7-.707 15.71-1.321 23.22-2.217 7.51-.896 14.48-2.07 20.1-3.886 5.63-1.823 9.78-4.26 11.79-7.612l.86.514c-2.2 3.673-6.66 6.207-12.35 8.05-5.7 1.847-12.75 3.03-20.28 3.927-7.53.898-15.57 1.515-23.25 2.22-7.69.707-15.01 1.502-21.14 2.757l-.2-.98Zm-34.06 14.855c4.31.947 8.78 1.616 13.61.629l.2.98c-5.04 1.03-9.68.323-14.02-.632l.21-.977Zm110.85-31.086-.42-.275c0-.001 0-.002.01-.003v-.012c.01-.01.02-.027.03-.048.03-.042.07-.104.12-.184.1-.16.24-.39.41-.669.33-.557.74-1.301 1.08-2.058.35-.768.61-1.502.66-2.055.03-.276 0-.455-.05-.56-.03-.079-.09-.138-.22-.173l.26-.966c.41.11.71.364.87.72.15.332.17.713.14 1.076-.07.724-.39 1.583-.75 2.372-.36.801-.79 1.578-1.13 2.152-.17.288-.32.526-.42.693-.05.084-.1.15-.13.195a.224.224 0 0 1-.03.052c0 .006-.01.01-.01.013v.005l-.42-.275Zm1.62-6.037c-6.55-1.753-10.77-2.877-15.57-1.896l-.2-.98c5.07-1.036 9.53.17 16.03 1.91l-.26.966Zm-15.45-1.935a391.21 391.21 0 0 1-6.33 2.97l-.41-.91c2.24-1.023 4.34-2.021 6.31-2.962l.43.902Zm-6.33 2.97c-19.18 8.754-48.47 19.348-83.75 10.29l.25-.97c34.95 8.974 63.97-1.508 83.09-10.23l.41.91ZM972.698 1.537l152.132 40.764-.26.966L972.439 2.503l.259-.966Zm61.282 77.5-3.5 13.04-.96-.258 3.49-13.04.97.259Zm-3.5 13.04c-.18.692.14 1.442.95 2.423.4.478.89.977 1.42 1.518.54.537 1.12 1.114 1.69 1.728 2.3 2.461 4.55 5.677 3.32 10.283l-.97-.258c1.09-4.088-.85-6.95-3.08-9.343-.56-.6-1.12-1.16-1.66-1.705-.54-.54-1.06-1.069-1.48-1.585-.84-1.007-1.48-2.113-1.15-3.319l.96.259Zm7.38 15.952c-1.68 6.253-7.59 10.131-14.4 8.309l.26-.966c6.24 1.671 11.63-1.851 13.17-7.601l.97.258Zm-14.4 8.309c-3.42-.917-5.96-2.804-7.42-5.345-1.45-2.54-1.79-5.679-.88-9.046l.96.259c-.84 3.154-.51 6.015.79 8.29 1.3 2.275 3.61 4.017 6.81 4.876l-.26.966Z" fill="#FAF3EE"/><path fill-rule="evenodd" clip-rule="evenodd" d="M627.807 523.44c10.551 2.309 31.224 6.665 71.677 14.845 7.124 1.44 10.903.481 12.975-.654 2.107-1.155 3.202-2.868 4.318-4.8.519-.899 1.133-3.253.741-5.899-.367-2.47-1.523-4.672-3.89-6.038l-71.541-41.304 2.191-3.795 2.191-3.795 71.541 41.304c5.165 2.983 7.466 7.836 8.126 12.283.633 4.271-.156 8.696-1.828 11.592-1.195 2.068-3.309 5.709-7.715 8.123-4.442 2.433-10.481 3.257-18.884 1.558-40.466-8.183-61.193-12.55-71.812-14.874-5.305-1.161-8.115-1.818-9.614-2.19a38.766 38.766 0 0 1-1.499-.395 9.345 9.345 0 0 1-.428-.138 4.555 4.555 0 0 1-.592-.257l-.074-.04-.041-.022c-.021-.012-.043-.025 2.148-3.819-2.191 3.794-2.212 3.782-2.233 3.769l-.04-.024-.072-.044a5.063 5.063 0 0 1-.519-.384 7.73 7.73 0 0 1-.333-.303 37.607 37.607 0 0 1-1.092-1.1c-1.071-1.112-3.045-3.217-6.703-7.231-7.323-8.034-21.468-23.801-48.787-54.754-5.673-6.428-7.979-12.069-8.093-17.133-.112-5.022 1.983-8.674 3.178-10.742 1.672-2.896 5.108-5.793 9.124-7.379 4.181-1.652 9.535-2.087 14.7.896L646.469 472l-2.191 3.795-2.191 3.795-71.541-41.305c-2.367-1.366-4.852-1.267-7.175-.349-2.487.982-4.219 2.692-4.738 3.59-1.115 1.933-2.051 3.738-1.997 6.14.053 2.362 1.111 6.114 5.92 11.563 27.31 30.944 41.42 46.669 48.695 54.652 3.64 3.994 5.551 6.03 6.54 7.056l.265.274.371.093c1.383.343 4.101.98 9.38 2.136Z" fill="#FAF3EE"/><path fill-rule="evenodd" clip-rule="evenodd" d="M601.885 561.997c2.066-.817 4.25-2.746 6.107-5.962 1.21-2.096 3.877-2.822 5.956-1.621 2.08 1.201 2.784 3.873 1.575 5.969-2.525 4.373-6.058 7.997-10.495 9.75-4.594 1.815-9.62 1.404-14.425-1.37-4.806-2.775-7.674-6.922-8.4-11.808-.7-4.72.672-9.59 3.197-13.964l7.668-13.281c3.72-6.444 10.082-8.518 14.794-9.103a30.578 30.578 0 0 1 8.007.092c.232.035.419.066.557.09l.168.031.056.01.02.004.008.002c.001 0 .007.001-.881 4.289-.888 4.287-.886 4.287-.885 4.288l.007.001-.057-.01a19.494 19.494 0 0 0-1.631-.198 21.894 21.894 0 0 0-4.356.081c-3.4.422-6.52 1.729-8.277 4.771l-7.667 13.281c-1.857 3.216-2.436 6.073-2.11 8.27.302 2.032 1.438 3.991 4.163 5.564 2.725 1.574 4.991 1.578 6.901.824Z" fill="#FAF3EE"/><path d="m642.087 479.59 2.191-3.795 2.191-3.795m-4.382 7.59 71.541 41.304c2.367 1.366 3.523 3.568 3.89 6.038.392 2.646-.222 5-.741 5.899-1.116 1.932-2.211 3.645-4.318 4.8-2.072 1.135-5.851 2.094-12.975.654-40.453-8.18-61.126-12.536-71.677-14.845-5.279-1.156-7.997-1.793-9.38-2.136a49.186 49.186 0 0 1-.371-.093 51.267 51.267 0 0 1-.265-.274c-.989-1.026-2.9-3.062-6.54-7.056-7.275-7.983-21.385-23.708-48.695-54.652-4.809-5.449-5.867-9.201-5.92-11.563-.054-2.402.882-4.207 1.997-6.14.519-.898 2.251-2.608 4.738-3.59 2.323-.918 4.808-1.017 7.175.349l71.541 41.305Zm4.382-7.59 71.541 41.304c5.165 2.983 7.466 7.836 8.126 12.283.633 4.271-.156 8.696-1.828 11.592-1.195 2.068-3.309 5.709-7.715 8.123-4.442 2.433-10.481 3.257-18.884 1.558-40.466-8.183-61.193-12.55-71.812-14.874-5.305-1.161-8.115-1.818-9.614-2.19a38.766 38.766 0 0 1-1.499-.395 9.345 9.345 0 0 1-.428-.138 4.555 4.555 0 0 1-.592-.257l-.074-.04-.041-.022c-.021-.012-.043-.025 2.148-3.819M646.469 472l-71.542-41.304c-5.165-2.983-10.519-2.548-14.7-.896-4.016 1.586-7.452 4.483-9.124 7.379-1.195 2.068-3.29 5.72-3.178 10.742.114 5.064 2.42 10.705 8.093 17.133 27.319 30.953 41.464 46.72 48.787 54.754 3.658 4.014 5.632 6.119 6.703 7.231.533.553.869.888 1.092 1.1a5.527 5.527 0 0 0 .732.608c.035.024.075.051.12.079l.072.044.04.024c.021.013.042.025 2.233-3.769m0 0c.888-4.288.882-4.289.881-4.289l-.008-.002-.02-.004-.056-.01-.168-.031a25.26 25.26 0 0 0-2.449-.302 30.578 30.578 0 0 0-6.115.12c-4.712.585-11.074 2.659-14.794 9.103l-7.668 13.281c-2.525 4.374-3.897 9.244-3.197 13.964.726 4.886 3.594 9.033 8.4 11.808 4.805 2.774 9.831 3.185 14.425 1.37 4.437-1.753 7.97-5.377 10.495-9.75 1.21-2.096.505-4.768-1.575-5.969-2.079-1.201-4.746-.475-5.956 1.621-1.857 3.216-4.041 5.145-6.107 5.962-1.91.754-4.176.75-6.901-.824-2.725-1.573-3.861-3.532-4.163-5.564-.326-2.197.253-5.054 2.11-8.27l7.667-13.281c1.757-3.042 4.877-4.349 8.277-4.771a21.894 21.894 0 0 1 5.669.066c.148.022.256.04.318.051l.057.01-.007-.001c-.001-.001-.003-.001.885-4.288Z" stroke="#FAF3EE" stroke-width="2"/><path d="M840.31 393.985c-15.067.904-20.692-8.839-23.765-9.662-5.022.301-9.247 2.144-13.174 4.181-3.728 2.383-7.439 5.122-10.211 9.32-.824 3.073 4.801 12.817-3.515 25.412-13.861 20.993-46.383 50.162-42.405 66.052 0 0 1.428 6.97 3.375 5.846 5.844-3.374 9.743-5.625 12.515-9.824a370.927 370.927 0 0 1 2.37-6.565c7.361-19.718 20.526-47.786 51.729-66.238 31.581-17.796 62.468-15.162 83.225-11.678 2.435.409 4.73.83 6.871 1.23 5.022-.301 8.921-2.552 14.765-5.926 1.946-1.124-3.376-5.846-3.376-5.846-11.772-11.39-53.294 2.191-78.404 3.698Z" fill="#FAF3EE"/><path d="m816.545 384.323-.03-.499.081-.005.078.021-.129.483Zm23.765 9.662-.03-.499.03.499Zm78.404-3.698-.331.374-.008-.007-.008-.008.347-.359Zm-115.343-1.783-.27-.421.019-.012.02-.011.231.444Zm103.954 13.555.03.499-.062.004-.06-.011.092-.492Zm-6.871-1.23-.083.494.083-.494Zm-83.225 11.678-.255-.43.009-.005.246.435Zm-24.069-14.683-.483-.129.021-.079.045-.067.417.275Zm-3.515 25.412-.417-.275.417.275Zm-42.405 66.052.485-.122.003.011.002.01-.49.101Zm15.89-3.978.471.166-.02.058-.034.052-.417-.276Zm2.37-6.565-.468-.175.468.175Zm34.902-118.877a.5.5 0 1 1-.866.5l.866-.5Zm16.272 23.972c.474.127.957.412 1.448.766.497.357 1.042.814 1.638 1.32 1.199 1.018 2.638 2.265 4.445 3.458 3.6 2.377 8.667 4.546 16.075 4.102l.06.998c-7.659.46-12.938-1.79-16.686-4.265-1.866-1.232-3.351-2.519-4.542-3.531-.6-.509-1.115-.941-1.574-1.271-.463-.333-.828-.532-1.123-.611l.259-.966Zm23.606 9.646c6.247-.375 13.526-1.502 21.134-2.809 7.597-1.306 15.524-2.791 23.029-3.872 7.503-1.082 14.621-1.764 20.611-1.457 5.972.307 10.93 1.602 14.008 4.579l-.695.719c-2.809-2.717-7.455-3.996-13.364-4.299-5.891-.302-12.931.369-20.418 1.447-7.486 1.079-15.384 2.559-23.002 3.868-7.608 1.308-14.936 2.443-21.243 2.822l-.06-.998Zm-37.14-5.426c3.946-2.046 8.246-3.928 13.375-4.236l.06.998c-4.915.295-9.064 2.098-12.974 4.126l-.461-.888Zm115.574 2.227.332-.374h.001l.001.001.003.003.012.011.046.041.17.156c.145.134.349.326.587.56a23.693 23.693 0 0 1 1.652 1.786c.551.669 1.078 1.417 1.334 2.099.128.341.206.714.144 1.074a1.295 1.295 0 0 1-.656.922l-.5-.866c.118-.069.156-.14.171-.226.019-.114.002-.294-.096-.553-.195-.52-.633-1.163-1.169-1.815a22.684 22.684 0 0 0-1.581-1.707 24.805 24.805 0 0 0-.727-.688l-.042-.038-.01-.01-.003-.002.331-.374Zm3.626 6.279c-5.821 3.36-9.824 5.682-14.985 5.992l-.06-.998c4.883-.293 8.678-2.473 14.545-5.86l.5.866Zm-15.107 5.985c-2.14-.401-4.432-.82-6.862-1.228l.166-.987c2.439.41 4.738.831 6.88 1.232l-.184.983Zm-6.862-1.228c-20.718-3.479-51.466-6.092-82.897 11.62l-.491-.871c31.731-17.881 62.759-15.227 83.554-11.736l-.166.987Zm-106.728-3.369c-.079.294-.089.71-.032 1.278.056.562.172 1.224.313 1.998.281 1.537.653 3.467.787 5.699.269 4.483-.421 10.18-4.649 16.583l-.834-.551c4.088-6.193 4.743-11.666 4.485-15.972-.13-2.162-.49-4.031-.772-5.579-.141-.768-.264-1.47-.325-2.078-.061-.602-.066-1.164.061-1.637l.966.259Zm-3.581 25.558c-3.482 5.273-8.129 11.051-13.065 16.986-4.943 5.943-10.174 12.042-14.851 17.987-4.678 5.944-8.779 11.706-11.462 16.958-2.692 5.269-3.908 9.933-2.959 13.723l-.97.243c-1.04-4.154.318-9.096 3.038-14.421 2.729-5.341 6.879-11.164 11.567-17.122 4.689-5.958 9.939-12.08 14.868-18.007 4.936-5.935 9.551-11.675 13-16.898l.834.551Zm13.578-34.586c-3.712 2.372-7.35 5.065-10.063 9.174l-.834-.551c2.831-4.288 6.614-7.072 10.358-9.466l.539.843Zm-56.4 100.362.49-.101v.004a1.703 1.703 0 0 1 .015.069l.048.214c.042.185.104.448.185.76.162.627.396 1.444.688 2.223.296.79.634 1.491.986 1.92.177.214.324.319.432.359.082.03.163.033.281-.035l.5.866a1.297 1.297 0 0 1-1.127.107c-.343-.126-.626-.381-.858-.662-.462-.562-.847-1.393-1.151-2.204a23.781 23.781 0 0 1-.72-2.324 26.904 26.904 0 0 1-.241-1.013l-.013-.061-.004-.016-.001-.004v-.002l.49-.1Zm3.125 5.413c5.867-3.388 9.652-5.584 12.348-9.666l.834.551c-2.849 4.314-6.861 6.62-12.682 9.981l-.5-.866Zm12.293-9.557a372.884 372.884 0 0 1 2.374-6.574l.937.35a369.713 369.713 0 0 0-2.368 6.556l-.943-.332Zm2.374-6.574c7.374-19.755 20.592-47.954 51.942-66.493l.509.861c-31.054 18.364-44.167 46.3-51.514 65.982l-.937-.35Zm136.393-77.724-136.398 78.75-.5-.866 136.398-78.75.5.866Zm-98.132-11.47-6.75-11.691.866-.5 6.75 11.691-.866.5Zm-6.75-11.691c-.357-.62-1.116-.922-2.386-1.039-.618-.058-1.314-.068-2.077-.07-.757-.003-1.577.002-2.417-.027-3.361-.119-7.228-.8-9.612-4.931l.866-.5c2.115 3.665 5.513 4.316 8.782 4.431.818.029 1.615.024 2.384.027.762.002 1.499.012 2.167.074 1.303.121 2.535.453 3.159 1.535l-.866.5Zm-16.492-6.067c-3.237-5.606-1.798-12.529 4.3-16.05l.5.866c-5.593 3.229-6.911 9.529-3.934 14.684l-.866.5Zm4.3-16.05c3.069-1.772 6.203-2.238 9.028-1.47s5.281 2.752 7.023 5.77l-.866.5c-1.632-2.827-3.889-4.617-6.419-5.305-2.529-.687-5.391-.289-8.266 1.371l-.5-.866Z" fill="#FAF3EE"/><path fill-rule="evenodd" clip-rule="evenodd" d="M1007.24 413.333c5.83-9.093 17.36-26.792 40.18-61.181 4.02-6.055 7.37-8.049 9.64-8.711 2.31-.674 4.29-.237 6.45.34 1 .269 3.1 1.499 4.69 3.647 1.49 2.006 2.23 4.382 1.52 7.021l-21.38 79.793 4.23 1.135 4.24 1.133 21.38-79.793c1.54-5.761-.26-10.82-2.94-14.431-2.57-3.468-6.26-6.038-9.49-6.904-2.31-.618-6.38-1.697-11.2-.289-4.86 1.421-9.71 5.108-14.45 12.252-22.83 34.399-34.4 52.143-40.266 61.296-2.931 4.572-4.453 7.023-5.249 8.346a37.638 37.638 0 0 0-.781 1.34 6.88 6.88 0 0 0-.321.663 3.668 3.668 0 0 0-.121.337l-.025.081-.013.045c-.006.023-.013.047 4.22 1.181-4.233-1.134-4.239-1.11-4.245-1.086l-.011.045-.02.082-.029.141c-.015.082-.026.154-.035.212a5.752 5.752 0 0 0-.053.735c-.007.308-.008.782.007 1.55.028 1.544.121 4.428.372 9.853.504 10.859 1.65 32.01 4.22 73.215.533 8.556 2.89 14.176 6.39 17.837 3.47 3.631 7.54 4.731 9.85 5.349 3.23.866 7.7.483 11.66-1.234 4.13-1.789 8.22-5.267 9.77-11.028l21.38-79.795-4.24-1.133-4.23-1.135-21.38 79.795c-.71 2.639-2.53 4.326-4.83 5.32-2.45 1.064-4.88 1.08-5.88.811-2.16-.578-4.1-1.192-5.76-2.929-1.63-1.707-3.54-5.109-3.99-12.363-2.57-41.192-3.71-62.288-4.21-73.077-.25-5.398-.34-8.189-.37-9.613v-.382c.06-.098.12-.206.2-.328.73-1.22 2.2-3.593 5.12-8.143Z" fill="#FAF3EE"/><path fill-rule="evenodd" clip-rule="evenodd" d="M961.644 404.399c2.038-.884 4.947-1.064 8.534-.103 2.337.627 4.736-.746 5.358-3.065.621-2.32-.77-4.708-3.108-5.334-4.877-1.307-9.937-1.372-14.315.527-4.531 1.965-7.795 5.809-9.231 11.169-1.436 5.359-.532 10.32 2.41 14.288 2.842 3.833 7.256 6.307 12.134 7.614l14.813 3.969c7.188 1.926 13.152-1.107 16.899-4.025a30.533 30.533 0 0 0 4.408-4.239 26.439 26.439 0 0 0 1.514-1.945l.1-.141.03-.046.01-.017.01-.007c0-.001 0-.006-3.656-2.41-3.66-2.404-3.659-2.405-3.658-2.406l.004-.006-.033.047a19.757 19.757 0 0 1-1.014 1.294 21.889 21.889 0 0 1-3.137 3.022c-2.703 2.106-5.833 3.389-9.226 2.479l-14.813-3.969c-3.587-.961-6.017-2.571-7.34-4.356-1.223-1.65-1.805-3.839-.991-6.878.815-3.04 2.413-4.645 4.298-5.462Z" fill="#FAF3EE"/><path d="m1048.34 434.242 4.23 1.135 4.24 1.133m-8.47-2.268 21.38-79.793c.71-2.639-.03-5.015-1.52-7.021-1.59-2.148-3.69-3.378-4.69-3.647-2.16-.577-4.14-1.014-6.45-.34-2.27.662-5.62 2.656-9.64 8.711-22.82 34.389-34.35 52.088-40.18 61.181-2.92 4.55-4.39 6.923-5.12 8.143-.08.122-.14.23-.2.328v.382c.03 1.424.12 4.215.37 9.613.5 10.789 1.64 31.885 4.21 73.077.45 7.254 2.36 10.656 3.99 12.363 1.66 1.737 3.6 2.351 5.76 2.929 1 .269 3.43.253 5.88-.811 2.3-.994 4.12-2.681 4.83-5.32l21.38-79.795Zm8.47 2.268 21.38-79.793c1.54-5.761-.26-10.82-2.94-14.431-2.57-3.468-6.26-6.038-9.49-6.904-2.31-.618-6.38-1.697-11.2-.289-4.86 1.421-9.71 5.108-14.45 12.252-22.83 34.399-34.4 52.143-40.266 61.296-2.931 4.572-4.453 7.023-5.249 8.346a37.638 37.638 0 0 0-.781 1.34 6.88 6.88 0 0 0-.321.663 3.668 3.668 0 0 0-.121.337l-.025.081-.013.045c-.006.023-.013.047 4.22 1.181m59.256 15.876-21.38 79.795c-1.55 5.761-5.64 9.239-9.77 11.028-3.96 1.717-8.43 2.1-11.66 1.234-2.31-.618-6.38-1.718-9.85-5.349-3.5-3.661-5.857-9.281-6.39-17.837-2.57-41.205-3.716-62.356-4.22-73.215-.251-5.425-.344-8.309-.372-9.853a38.21 38.21 0 0 1-.007-1.55 5.752 5.752 0 0 1 .053-.735c.009-.058.02-.13.035-.212l.029-.141.02-.082.011-.045c.006-.024.012-.048 4.245 1.086m0 0c3.656 2.404 3.656 2.409 3.656 2.41l-.01.007-.01.017-.03.046-.1.141a26.439 26.439 0 0 1-1.514 1.945 30.533 30.533 0 0 1-4.408 4.239c-3.747 2.918-9.711 5.951-16.899 4.025l-14.813-3.969c-4.878-1.307-9.292-3.781-12.134-7.614-2.942-3.968-3.846-8.929-2.41-14.288 1.436-5.36 4.7-9.204 9.231-11.169 4.378-1.899 9.438-1.834 14.315-.527 2.338.626 3.729 3.014 3.108 5.334-.622 2.319-3.021 3.692-5.358 3.065-3.587-.961-6.496-.781-8.534.103-1.885.817-3.483 2.422-4.298 5.462-.814 3.039-.232 5.228.991 6.878 1.323 1.785 3.753 3.395 7.34 4.356l14.813 3.969c3.393.91 6.523-.373 9.226-2.479a21.889 21.889 0 0 0 3.962-4.055c.089-.12.153-.209.189-.261l.033-.047-.004.006c-.001.001-.002.002 3.658 2.406Z" stroke="#FAF3EE" stroke-width="2"/><path fill-rule="evenodd" clip-rule="evenodd" d="M747.333 22.238c-9.093 5.828-26.792 17.365-61.181 40.186-6.055 4.018-8.049 7.37-8.711 9.637-.674 2.306-.237 4.292.34 6.447.269 1.003 1.499 3.102 3.647 4.695 2.006 1.487 4.382 2.227 7.021 1.52l79.793-21.381 1.135 4.232c1.134 4.232 1.134 4.233 1.133 4.233l-79.793 21.38c-5.761 1.544-10.82-.261-14.431-2.939-3.468-2.572-6.038-6.26-6.904-9.489-.618-2.307-1.697-6.377-.289-11.2 1.421-4.86 5.108-9.713 12.252-14.454 34.399-22.828 52.143-34.396 61.296-40.261 4.572-2.93 7.023-4.453 8.346-5.25a37.794 37.794 0 0 1 1.34-.78c.133-.073.267-.143.4-.206a4.827 4.827 0 0 1 .6-.236l.081-.025.045-.013c.023-.006.047-.013 1.181 4.22-1.134-4.233-1.11-4.239-1.086-4.245l.045-.011.082-.02a4.518 4.518 0 0 1 .639-.095c.146-.012.297-.018.449-.022.308-.007.782-.008 1.55.007 1.544.028 4.428.12 9.853.372 10.859.504 32.01 1.65 73.215 4.22 8.556.533 14.176 2.892 17.837 6.392 3.631 3.472 4.731 7.536 5.349 9.843.866 3.23.483 7.708-1.234 11.67-1.789 4.124-5.267 8.217-11.028 9.76L770.51 71.808l-1.133-4.233-1.135-4.232 79.795-21.38c2.639-.708 4.326-2.536 5.32-4.827 1.064-2.454 1.08-4.887.811-5.89-.578-2.155-1.192-4.093-2.929-5.753-1.707-1.633-5.109-3.538-12.363-3.99-41.192-2.57-62.288-3.712-73.077-4.212-5.398-.25-8.189-.339-9.613-.365a57.954 57.954 0 0 0-.382-.006l-.328.196c-1.22.735-3.593 2.207-8.143 5.123Z" fill="#FAF3EE"/><path fill-rule="evenodd" clip-rule="evenodd" d="M738.399-23.356c-.884 2.038-1.064 4.947-.103 8.534.627 2.337-.746 4.736-3.065 5.358-2.32.621-4.708-.77-5.334-3.107-1.307-4.878-1.372-9.938.527-14.316 1.965-4.532 5.809-7.795 11.169-9.231 5.359-1.436 10.32-.532 14.288 2.41 3.833 2.842 6.307 7.256 7.614 12.134l3.969 14.813c1.926 7.188-1.107 13.152-4.025 16.899a30.524 30.524 0 0 1-5.727 5.596c-.188.14-.342.25-.457.33l-.141.098-.046.031-.017.011-.007.005c-.001.001-.006.004-2.41-3.655-2.404-3.66-2.405-3.659-2.406-3.658l-.006.004.047-.033a20.144 20.144 0 0 0 1.294-1.014 21.87 21.87 0 0 0 3.022-3.137c2.106-2.703 3.389-5.833 2.479-9.226l-3.969-14.813c-.961-3.587-2.571-6.017-4.356-7.34-1.65-1.223-3.839-1.805-6.878-.99-3.04.814-4.645 2.412-5.462 4.297Z" fill="#FAF3EE"/><path d="m768.242 63.342 1.135 4.232c1.134 4.232 1.134 4.233 1.133 4.233m-2.268-8.465-79.793 21.38c-2.639.708-5.015-.031-7.021-1.519-2.148-1.593-3.378-3.692-3.647-4.695-.577-2.155-1.014-4.14-.34-6.447.662-2.268 2.656-5.619 8.711-9.637 34.389-22.82 52.088-34.358 61.181-40.186 4.55-2.916 6.923-4.388 8.143-5.123l.328-.196.382.006c1.424.026 4.215.114 9.613.365 10.789.5 31.885 1.643 73.077 4.212 7.254.452 10.656 2.357 12.363 3.99 1.737 1.66 2.351 3.598 2.929 5.754.269 1.002.253 3.435-.811 5.889-.994 2.291-2.681 4.119-5.32 4.826l-79.795 21.38Zm2.268 8.465-79.793 21.38c-5.761 1.544-10.82-.261-14.431-2.939-3.468-2.572-6.038-6.26-6.904-9.489-.618-2.307-1.697-6.377-.289-11.2 1.421-4.86 5.108-9.713 12.252-14.454 34.399-22.828 52.143-34.396 61.296-40.261 4.572-2.93 7.023-4.453 8.346-5.25a37.794 37.794 0 0 1 1.34-.78c.133-.073.267-.143.4-.206a4.835 4.835 0 0 1 .6-.236l.081-.025.045-.013c.023-.006.047-.013 1.181 4.22m15.876 59.253 79.795-21.381c5.761-1.544 9.239-5.637 11.028-9.761 1.717-3.962 2.1-8.44 1.234-11.67-.618-2.307-1.718-6.37-5.349-9.843-3.661-3.5-9.281-5.859-17.837-6.392-41.205-2.57-62.356-3.716-73.215-4.22-5.425-.251-8.309-.344-9.853-.372a38.029 38.029 0 0 0-1.55-.007c-.152.004-.303.01-.449.022a4.893 4.893 0 0 0-.639.095l-.082.02-.045.01c-.024.007-.048.013 1.086 4.246m0 0c2.404 3.659 2.409 3.656 2.41 3.655l.007-.005.017-.01.046-.032.141-.098c.115-.08.269-.19.457-.33a30.524 30.524 0 0 0 5.727-5.596c2.918-3.747 5.951-9.711 4.025-16.899l-3.969-14.813c-1.307-4.878-3.781-9.292-7.614-12.134-3.968-2.942-8.929-3.846-14.288-2.41-5.36 1.436-9.204 4.7-11.169 9.231-1.899 4.378-1.834 9.438-.527 14.316.626 2.337 3.014 3.728 5.334 3.107 2.319-.622 3.692-3.02 3.065-5.358-.961-3.587-.781-6.496.103-8.534.817-1.884 2.422-3.483 5.462-4.298 3.039-.814 5.228-.232 6.878.991 1.785 1.323 3.395 3.753 4.356 7.34l3.969 14.813c.91 3.393-.373 6.523-2.479 9.226a21.87 21.87 0 0 1-4.055 3.962c-.12.09-.209.153-.261.19l-.047.032.006-.004c.001 0 .002-.002 2.406 3.658Z" stroke="#FAF3EE" stroke-width="2"/><path d="M1057.65 303.985c15.06.904 20.69-8.839 23.76-9.662 5.02.301 9.25 2.144 13.17 4.181 3.73 2.383 7.44 5.122 10.22 9.32.82 3.073-4.81 12.817 3.51 25.412 13.86 20.993 46.38 50.162 42.41 66.052 0 0-1.43 6.97-3.38 5.846-5.84-3.374-9.74-5.625-12.51-9.824-.73-2.054-1.51-4.252-2.38-6.565-7.36-19.718-20.52-47.786-51.72-66.238-31.58-17.796-62.47-15.162-83.229-11.678-2.435.409-4.73.83-6.871 1.23-5.022-.301-8.921-2.552-14.764-5.926-1.947-1.124 3.375-5.846 3.375-5.846 11.772-11.39 53.299 2.191 78.409 3.698Z" fill="#FAF3EE"/><path d="m1081.41 294.323.03-.499-.08-.005-.08.021.13.483Zm-23.76 9.662.03-.499-.03.499Zm-78.409-3.698.332.374.008-.007.007-.008-.347-.359Zm115.339-1.783.27-.421-.02-.012-.02-.011-.23.444Zm-103.95 13.555-.03.499.062.004.06-.011-.092-.492Zm6.871-1.23.083.494-.083-.494Zm83.229 11.678.25-.43-.01-.005-.24.435Zm24.07-14.683.48-.129-.02-.079-.05-.067-.41.275Zm3.51 25.412.42-.275-.42.275Zm42.41 66.052-.49-.122V399.187l.49.101Zm-15.89-3.978-.48.166.02.058.04.052.42-.276Zm-2.38-6.565.47-.175-.47.175Zm-34.9-118.877a.5.5 0 0 0 .19.683c.24.139.54.057.68-.183l-.87-.5Zm-16.27 23.972c-.47.127-.96.412-1.45.766-.49.357-1.04.814-1.63 1.32-1.2 1.018-2.64 2.265-4.45 3.458-3.6 2.377-8.67 4.546-16.07 4.102l-.06.998c7.65.46 12.93-1.79 16.68-4.265 1.87-1.232 3.35-2.519 4.54-3.531.6-.509 1.12-.941 1.58-1.271.46-.333.82-.532 1.12-.611l-.26-.966Zm-23.6 9.646c-6.25-.375-13.53-1.502-21.14-2.809-7.6-1.306-15.52-2.791-23.03-3.872-7.5-1.082-14.619-1.764-20.609-1.457-5.972.307-10.93 1.602-14.008 4.579l.695.719c2.809-2.717 7.455-3.996 13.364-4.299 5.891-.302 12.928.369 20.418 1.447 7.49 1.079 15.38 2.559 23 3.868 7.61 1.308 14.94 2.443 21.25 2.822l.06-.998Zm37.13-5.426c-3.94-2.046-8.24-3.928-13.37-4.236l-.06.998c4.92.295 9.06 2.098 12.97 4.126l.46-.888Zm-115.569 2.227-.332-.374h-.001l-.001.001-.003.003-.012.011-.046.041-.17.156a26.46 26.46 0 0 0-.587.56 23.693 23.693 0 0 0-1.652 1.786c-.551.669-1.078 1.417-1.334 2.099-.127.341-.206.714-.144 1.074.067.387.288.709.657.922l.5-.866c-.119-.069-.157-.14-.172-.226-.019-.114-.002-.294.096-.553.195-.52.633-1.163 1.169-1.815a22.684 22.684 0 0 1 1.581-1.707 24.805 24.805 0 0 1 .727-.688l.042-.038.011-.01.002-.002h.001l-.332-.374Zm-3.625 6.279c5.82 3.36 9.823 5.682 14.984 5.992l.06-.998c-4.883-.293-8.678-2.473-14.544-5.86l-.5.866Zm15.106 5.985c2.14-.401 4.432-.82 6.862-1.228l-.166-.987c-2.439.41-4.738.831-6.88 1.232l.184.983Zm6.862-1.228c20.716-3.479 51.466-6.092 82.896 11.62l.49-.871c-31.73-17.881-62.76-15.227-83.552-11.736l.166.987Zm106.726-3.369c.08.294.09.71.03 1.278-.05.562-.17 1.224-.31 1.998-.28 1.537-.65 3.467-.79 5.699-.27 4.483.43 10.18 4.65 16.583l.84-.551c-4.09-6.193-4.75-11.666-4.49-15.972.13-2.162.49-4.031.77-5.579.14-.769.27-1.47.33-2.078.06-.602.07-1.164-.06-1.637l-.97.259Zm3.58 25.558c3.48 5.273 8.13 11.051 13.07 16.986 4.94 5.943 10.17 12.042 14.85 17.987 4.68 5.944 8.78 11.706 11.46 16.958 2.69 5.269 3.91 9.933 2.96 13.723l.97.243c1.04-4.154-.32-9.096-3.04-14.421-2.73-5.341-6.88-11.164-11.56-17.122-4.69-5.958-9.94-12.08-14.87-18.007-4.94-5.935-9.55-11.676-13-16.898l-.84.551Zm-13.57-34.586c3.71 2.372 7.34 5.065 10.06 9.174l.83-.551c-2.83-4.288-6.61-7.072-10.36-9.466l-.53.843Zm56.4 100.362-.49-.101v.001l-.01.003v.014c0 .012 0 .031-.01.055-.01.049-.03.122-.05.214a22.767 22.767 0 0 1-.87 2.983c-.3.79-.63 1.491-.99 1.92-.17.214-.32.319-.43.359-.08.03-.16.033-.28-.035l-.5.866c.37.212.76.243 1.13.107.34-.126.62-.381.85-.662.47-.562.85-1.393 1.16-2.204.3-.824.55-1.679.72-2.324.08-.323.14-.596.19-.788.02-.096.04-.172.05-.225 0-.026.01-.047.01-.061V399.388c.01 0 .01 0-.48-.1Zm-3.13 5.413c-5.87-3.388-9.65-5.584-12.35-9.666l-.83.551c2.85 4.314 6.86 6.62 12.68 9.981l.5-.866Zm-12.29-9.557c-.73-2.055-1.51-4.257-2.38-6.574l-.93.35c.86 2.309 1.64 4.503 2.36 6.556l.95-.332Zm-2.38-6.574c-7.37-19.755-20.59-47.954-51.94-66.493l-.51.861c31.06 18.364 44.17 46.3 51.52 65.982l.93-.35Zm-136.39-77.724 136.4 78.75.5-.866-136.4-78.75-.5.866Zm98.13-11.47 6.75-11.691-.86-.5-6.75 11.691.86.5Zm6.75-11.691c.36-.62 1.12-.922 2.39-1.039.62-.058 1.31-.068 2.08-.07.75-.003 1.57.002 2.41-.027 3.36-.119 7.23-.8 9.61-4.931l-.86-.5c-2.12 3.665-5.51 4.316-8.78 4.431-.82.029-1.62.024-2.39.027-.76.002-1.5.012-2.16.074-1.31.121-2.54.453-3.16 1.535l.86.5Zm16.49-6.067c3.24-5.606 1.8-12.529-4.3-16.05l-.5.866c5.6 3.229 6.91 9.529 3.94 14.684l.86.5Zm-4.3-16.05c-3.06-1.772-6.2-2.238-9.02-1.47-2.83.768-5.28 2.752-7.03 5.77l.87.5c1.63-2.827 3.89-4.617 6.42-5.305 2.53-.687 5.39-.289 8.26 1.371l.5-.866ZM198.648-.355c-.904 15.066 8.839 20.692 9.662 23.765-.302 5.022-2.145 9.246-4.181 13.174-2.384 3.728-5.122 7.439-9.32 10.21-3.073.825-12.817-4.8-25.412 3.516-20.993 13.86-50.162 46.383-66.052 42.405 0 0-6.97-1.429-5.846-3.375 3.374-5.844 5.625-9.743 9.824-12.515a371.874 371.874 0 0 0 6.565-2.37c19.718-7.361 47.786-20.527 66.238-51.729 17.796-31.581 15.162-62.468 11.677-83.225a369.6 369.6 0 0 0-1.229-6.871c.301-5.022 2.552-8.921 5.926-14.765 1.124-1.947 5.846 3.375 5.846 3.375 11.39 11.772-2.191 53.295-3.698 78.405Z" fill="#FAF3EE"/><path d="m208.31 23.41.499.03.005-.081-.021-.079-.483.13ZM198.648-.355l.499.03-.499-.03Zm3.698-78.405-.374.332.007.008.008.008.359-.348Zm1.783 115.344.421.27.012-.02.01-.02-.443-.23ZM190.574-67.37l-.499-.03-.004.061.011.06.492-.091Zm1.229 6.87-.493.083.493-.082Zm-11.677 83.226.43.255.005-.01-.435-.245Zm14.683 24.069.129.483.078-.021.068-.045-.275-.417Zm-25.412 3.515.275.417-.275-.417Zm-66.052 42.405.122-.485-.011-.003-.011-.002-.1.49Zm3.978-15.89-.166-.472-.058.02-.052.034.276.418Zm6.565-2.37.175.468-.175-.469Zm118.876-34.902a.5.5 0 1 0-.5.866l.5-.866ZM208.793 23.28c-.127-.474-.413-.958-.766-1.449-.357-.496-.814-1.042-1.32-1.637-1.019-1.2-2.265-2.638-3.459-4.446-2.376-3.6-4.546-8.667-4.101-16.074l-.998-.06c-.46 7.66 1.79 12.937 4.265 16.685 1.232 1.867 2.519 3.352 3.531 4.542.509.6.941 1.116 1.27 1.574.334.464.533.828.612 1.123l.966-.259ZM199.147-.326c.375-6.247 1.502-13.527 2.809-21.134 1.305-7.597 2.791-15.525 3.872-23.029s1.764-14.621 1.457-20.612c-.307-5.972-1.602-10.93-4.58-14.008l-.718.696c2.717 2.808 3.996 7.455 4.299 13.364.302 5.89-.369 12.93-1.448 20.417-1.078 7.487-2.559 15.384-3.868 23.003-1.307 7.608-2.443 14.935-2.821 21.243l.998.06Zm5.425 37.14c2.046-3.946 3.929-8.246 4.237-13.375l-.998-.06c-.295 4.915-2.099 9.064-4.126 12.974l.887.46ZM202.346-78.76l.374-.332-.001-.001a.016.016 0 0 1-.003-.003l-.011-.013-.042-.046-.155-.17a28.405 28.405 0 0 0-.561-.586 23.427 23.427 0 0 0-1.785-1.653c-.669-.55-1.417-1.078-2.099-1.333-.341-.128-.714-.207-1.074-.145a1.296 1.296 0 0 0-.922.657l.866.5c.068-.118.14-.156.226-.171.113-.02.294-.002.553.095.52.195 1.163.633 1.815 1.17a22.747 22.747 0 0 1 1.707 1.58c.226.23.412.427.54.566l.148.161.038.043a.495.495 0 0 0 .009.01l.002.002.001.001.374-.332Zm-6.279-3.625c-3.361 5.82-5.683 9.824-5.992 14.985l.998.06c.293-4.883 2.473-8.678 5.86-14.545l-.866-.5Zm-5.985 15.107c.401 2.14.82 4.431 1.228 6.861l.986-.165c-.409-2.44-.83-4.738-1.231-6.88l-.983.184Zm1.228 6.861c3.478 20.719 6.092 51.466-11.62 82.898l.871.49c17.881-31.73 15.226-62.758 11.735-83.553l-.986.165Zm3.369 106.729c-.295.079-.71.089-1.278.032-.562-.057-1.224-.172-1.998-.314-1.537-.28-3.467-.653-5.699-.787-4.483-.269-10.18.422-16.583 4.65l.551.834c6.193-4.089 11.666-4.744 15.972-4.485 2.162.13 4.031.49 5.579.772.768.14 1.47.264 2.078.325.602.06 1.163.066 1.637-.061l-.259-.966Zm-25.558 3.58c-5.273 3.482-11.051 8.13-16.986 13.066-5.944 4.943-12.043 10.173-17.987 14.85-5.945 4.678-11.706 8.78-16.958 11.463-5.269 2.692-9.933 3.908-13.723 2.959l-.243.97c4.154 1.04 9.095-.318 14.421-3.038 5.341-2.73 11.164-6.88 17.121-11.568 5.959-4.688 12.081-9.938 18.008-14.867 5.935-4.936 11.675-9.552 16.898-13l-.551-.835Zm34.586-13.577c-2.372 3.711-5.065 7.35-9.174 10.063l.551.834c4.288-2.831 7.072-6.614 9.466-10.359l-.843-.538Zm-100.362 56.4.101-.49h-.004l-.014-.004-.056-.012-.213-.047a26.19 26.19 0 0 1-.76-.185 22.71 22.71 0 0 1-2.223-.688c-.79-.296-1.491-.634-1.92-.987-.214-.176-.32-.323-.36-.431-.03-.082-.032-.163.036-.281l-.866-.5a1.296 1.296 0 0 0-.108 1.126c.127.343.381.627.663.858.562.463 1.392.847 2.204 1.151.824.31 1.679.554 2.324.72a28.118 28.118 0 0 0 1.013.242l.06.013.016.003.005.001h.001l.101-.49Zm-5.413-3.125c3.387-5.867 5.584-9.653 9.666-12.348l-.551-.835c-4.314 2.85-6.62 6.862-9.98 12.683l.865.5Zm9.557-12.294a374.84 374.84 0 0 0 6.574-2.373l-.35-.937a372.622 372.622 0 0 1-6.556 2.367l.332.943Zm6.574-2.373c19.754-7.375 47.953-20.592 66.493-51.943l-.861-.509c-18.364 31.055-46.3 44.168-65.982 51.515l.35.937Zm77.723-136.394L113.037 74.928l.866.5 78.749-136.399-.866-.5Zm11.471 98.132 11.691 6.75.5-.866-11.691-6.75-.5.866Zm11.691 6.75c.619.358.922 1.117 1.039 2.386.057.619.068 1.315.07 2.078.003.756-.002 1.577.027 2.416.119 3.362.8 7.228 4.93 9.613l.5-.866c-3.664-2.116-4.315-5.513-4.43-8.782-.029-.818-.024-1.615-.027-2.384-.002-.763-.012-1.499-.074-2.167-.121-1.304-.453-2.535-1.535-3.16l-.5.866Zm6.066 16.493c5.607 3.237 12.53 1.798 16.051-4.3l-.866-.5c-3.229 5.592-9.529 6.91-14.685 3.934l-.5.866Zm16.051-4.3c1.772-3.07 2.237-6.204 1.47-9.029-.768-2.824-2.753-5.28-5.771-7.022l-.5.866c2.828 1.632 4.618 3.888 5.306 6.419.687 2.529.289 5.39-1.371 8.265l.866.5Z" fill="#FAF3EE"/></g><defs><clipPath id="aaa"><path fill="#fff" d="M0 0h1120v500H0z"/></clipPath></defs></svg><svg fill="none" viewBox="0 0 24 24" id="arrow" xmlns="http://www.w3.org/2000/svg"><path d="m18 9-6 6-6-6"/></svg><svg fill="none" viewBox="0 0 24 24" id="arrow-right" xmlns="http://www.w3.org/2000/svg"><path d="M6 12h12M15 9l3 3-3 3" stroke="#AAA" stroke-width="1.5" stroke-linecap="round" stroke-linejoin="round"/></svg><svg fill="none" viewBox="0 0 32 32" id="arrowGoLeft" xmlns="http://www.w3.org/2000/svg"><path d="M8 16h16M8 16l8-8m-8 8 8 8" stroke="#AAA" stroke-width="2.5" stroke-linecap="round" stroke-linejoin="round"/></svg><svg fill="none" viewBox="0 0 24 24" id="camera" xmlns="http://www.w3.org/2000/svg"><path d="M17 3H7C4.239 3 2 5.015 2 7.5v9C2 18.985 4.239 21 7 21h10c2.761 0 5-2.015 5-4.5v-9C22 5.015 19.761 3 17 3Z"/><path d="M15.457 11.913a4 4 0 1 1-7.912 1.174 4 4 0 0 1 7.912-1.174ZM17.5 7.5h.01"/></svg><svg fill="none" viewBox="0 0 24 24" id="catalog" xmlns="http://www.w3.org/2000/svg"><g clip-path="url(#clip10_45829)"><path d="M13.5 16.5a6.5 6.5 0 1 1 0-13 6.5 6.5 0 0 1 0 13Zm7.5 2-3-3M3 12.5h.5M3 16.5h2.5M3 20.5h10"/></g></svg><svg fill="none" viewBox="0 0 24 24" id="categories" xmlns="http://www.w3.org/2000/svg"><path d="M20 8v12H4V8M22 4H2v4h20V4ZM10 12h4" stroke="#444" stroke-width="1.5" stroke-linecap="round" stroke-linejoin="round"/></svg><svg fill="none" viewBox="0 0 24 24" id="check" xmlns="http://www.w3.org/2000/svg"><path d="M20 6 9 17l-5-5"/></svg><svg fill="none" viewBox="0 0 49 48" id="check-round" xmlns="http://www.w3.org/2000/svg"><rect x="1.5" y="1" width="46" height="46" rx="23" fill="#fff" stroke="#50A533" stroke-width="2"/><path d="m32.5 18-11 11-5-5" stroke="#50A533" stroke-width="2.5" stroke-linecap="round" stroke-linejoin="round"/></svg><svg fill="none" viewBox="0 0 14 10" id="checkbox" xmlns="http://www.w3.org/2000/svg"><path d="M13 1 4.75 9 1 5.364" stroke="#CD9663" stroke-width="2" stroke-linecap="round" stroke-linejoin="round"/></svg><svg fill="none" viewBox="0 0 24 24" id="clock" xmlns="http://www.w3.org/2000/svg"><path d="M12 22c5.523 0 10-4.477 10-10S17.523 2 12 2 2 6.477 2 12s4.477 10 10 10Z"/><path d="M12 6v6l4 2"/></svg><svg fill="none" viewBox="0 0 24 24" id="cloth" xmlns="http://www.w3.org/2000/svg"><path d="M14.5 3.5c-.313.654-1.25 1.308-2.5 1.308S9.812 4.154 9.5 3.5c0 0-2.598.654-3.75 1.308C4.598 5.462 2 8.404 2 8.404l1.875 2.615L6.5 10s.5 2.327.5 9.52c1.563.98 5 .98 5 .98s3.438 0 5-.98c0-7.193.5-9.52.5-9.52l2.625 1.02L22 8.403s-2.598-2.942-3.75-3.596C17.098 4.154 14.5 3.5 14.5 3.5Z"/></svg><svg fill="none" viewBox="0 0 24 24" id="cloud" xmlns="http://www.w3.org/2000/svg"><path d="M18 10h-1.26A8 8 0 1 0 9 20h9a5 5 0 0 0 0-10Z"/></svg><svg viewBox="0 0 24 24" id="collapse" xmlns="http://www.w3.org/2000/svg"><path fill-rule="evenodd" clip-rule="evenodd" d="M10.924 13.617A.997.997 0 0 0 10 13H4a1 1 0 1 0 0 2h3.586l-5.293 5.293a1 1 0 1 0 1.414 1.414L9 16.414V20a1 1 0 1 0 2 0v-6.003a.996.996 0 0 0-.076-.38ZM16.414 9l5.293-5.293a1 1 0 0 0-1.414-1.414L15 7.586V4a1 1 0 1 0-2 0v6a.997.997 0 0 0 .997 1H20a1 1 0 1 0 0-2h-3.586Z"/></svg><svg fill="none" viewBox="0 0 24 24" id="compass" xmlns="http://www.w3.org/2000/svg"><path d="M12 22c5.523 0 10-4.477 10-10S17.523 2 12 2 2 6.477 2 12s4.477 10 10 10Z" stroke="#CD9663" stroke-width="2" stroke-linecap="round" stroke-linejoin="round"/><path d="m16.24 7.76-2.12 6.36-6.36 2.12 2.12-6.36 6.36-2.12Z" stroke="#CD9663" stroke-width="2" stroke-linecap="round" stroke-linejoin="round"/></svg><svg fill="none" viewBox="0 0 24 24" id="copy" xmlns="http://www.w3.org/2000/svg"><g clip-path="url(#apa)" stroke="#CD9663" stroke-width="2" stroke-linecap="round" stroke-linejoin="round"><path d="M20 9h-9a2 2 0 0 0-2 2v9a2 2 0 0 0 2 2h9a2 2 0 0 0 2-2v-9a2 2 0 0 0-2-2Z"/><path d="M5 15H4a2 2 0 0 1-2-2V4a2 2 0 0 1 2-2h9a2 2 0 0 1 2 2v1"/></g><defs><clipPath id="apa"><path fill="#fff" d="M0 0h24v24H0z"/></clipPath></defs></svg><svg fill="none" viewBox="0 0 24 24" id="credit-card" xmlns="http://www.w3.org/2000/svg"><path d="M21 4H3a2 2 0 0 0-2 2v12a2 2 0 0 0 2 2h18a2 2 0 0 0 2-2V6a2 2 0 0 0-2-2ZM1 10h22" stroke="#444" stroke-width="2" stroke-linecap="round" stroke-linejoin="round"/></svg><svg viewBox="0 0 24 24" id="cross" xmlns="http://www.w3.org/2000/svg"><path d="M18.707 6.707a1 1 0 0 0-1.414-1.414L12 10.586 6.707 5.293a1 1 0 0 0-1.414 1.414L10.586 12l-5.293 5.293a1 1 0 1 0 1.414 1.414L12 13.414l5.293 5.293a1 1 0 0 0 1.414-1.414L13.414 12l5.293-5.293Z"/></svg><svg fill="none" viewBox="0 0 24 24" id="density-grid" xmlns="http://www.w3.org/2000/svg"><path d="M10 3H3v7h7V3ZM21 3h-7v7h7V3ZM21 14h-7v7h7v-7ZM10 14H3v7h7v-7Z" stroke="#444" stroke-width="1.5" stroke-linecap="round" stroke-linejoin="round"/></svg><svg fill="none" viewBox="0 0 24 24" id="density-tile" xmlns="http://www.w3.org/2000/svg"><path d="M21 3H3v7h18V3ZM21 14H3v7h18v-7Z" stroke="#444" stroke-width="1.5" stroke-linecap="round" stroke-linejoin="round"/></svg><svg fill="none" viewBox="0 0 24 24" id="external-link" xmlns="http://www.w3.org/2000/svg"><path d="M18 13v6a2 2 0 0 1-2 2H5a2 2 0 0 1-2-2V8a2 2 0 0 1 2-2h6M15 3h6v6M10 14 21 3" stroke="#CD9663" stroke-width="2" stroke-linecap="round" stroke-linejoin="round"/></svg><svg fill="none" viewBox="0 0 24 24" id="facebook" xmlns="http://www.w3.org/2000/svg"><g clip-path="url(#ava)"><path d="M12 24c6.627 0 12-5.373 12-12S18.627 0 12 0 0 5.373 0 12s5.373 12 12 12Z" fill="#3C5A9A"/><path d="M15.902 3.683h-2.658c-1.578 0-3.333.664-3.333 2.95.008.797 0 1.56 0 2.419H8.086v2.904h1.882v8.36h3.457v-8.415h2.282l.207-2.857h-2.548s.005-1.271 0-1.64c0-.904.94-.852.996-.852h1.541V3.683h-.001Z" fill="#fff"/></g><defs><clipPath id="ava"><path fill="#fff" d="M0 0h24v24H0z"/></clipPath></defs></svg><svg viewBox="0 0 24 24" id="favourite" xmlns="http://www.w3.org/2000/svg"><path d="M20.458 4.591a5.255 5.255 0 0 0-1.708-1.177 5.122 5.122 0 0 0-4.028 0 5.255 5.255 0 0 0-1.708 1.177L12 5.638 10.986 4.59a5.182 5.182 0 0 0-3.722-1.59 5.183 5.183 0 0 0-3.722 1.59A5.52 5.52 0 0 0 2 8.431a5.52 5.52 0 0 0 1.542 3.841l1.014 1.047L12 21l7.444-7.681 1.014-1.047a5.446 5.446 0 0 0 1.141-1.761 5.581 5.581 0 0 0 0-4.158 5.445 5.445 0 0 0-1.141-1.762Z"/></svg><svg fill="none" viewBox="0 0 25 24" id="feed" xmlns="http://www.w3.org/2000/svg"><path d="M19.5 3h-14a2 2 0 0 0-2 2v14a2 2 0 0 0 2 2h14a2 2 0 0 0 2-2V5a2 2 0 0 0-2-2ZM3.5 9h18"/></svg><svg fill="none" viewBox="0 0 24 24" id="filters" xmlns="http://www.w3.org/2000/svg"><path d="M18 20V10M12 20V4M6 20v-6" stroke="#444" stroke-width="1.5" stroke-linecap="round" stroke-linejoin="round"/></svg><svg fill="none" viewBox="0 0 24 24" id="go-up" xmlns="http://www.w3.org/2000/svg"><path d="M7.536 8.243 11.778 4l4.243 4.243M11.778 19.556V4" stroke="#444" stroke-width="2" stroke-linecap="round" stroke-linejoin="round"/></svg><svg viewBox="0 0 48 48" id="google" xmlns="http://www.w3.org/2000/svg"><path d="M43.611 20.083H42V20H24v8h11.303c-1.649 4.657-6.08 8-11.303 8-6.627 0-12-5.373-12-12s5.373-12 12-12c3.059 0 5.842 1.154 7.961 3.039l5.657-5.657C34.046 6.053 29.268 4 24 4 12.955 4 4 12.955 4 24s8.955 20 20 20 20-8.955 20-20c0-1.341-.138-2.65-.389-3.917z" fill="#ffc107"/><path d="m6.306 14.691 6.571 4.819C14.655 15.108 18.961 12 24 12c3.059 0 5.842 1.154 7.961 3.039l5.657-5.657C34.046 6.053 29.268 4 24 4 16.318 4 9.656 8.337 6.306 14.691z" fill="#ff3d00"/><path d="M24 44c5.166 0 9.86-1.977 13.409-5.192l-6.19-5.238A11.91 11.91 0 0 1 24 36c-5.202 0-9.619-3.317-11.283-7.946l-6.522 5.025C9.505 39.556 16.227 44 24 44z" fill="#4caf50"/><path d="M43.611 20.083H42V20H24v8h11.303a12.04 12.04 0 0 1-4.087 5.571l.003-.002 6.19 5.238C36.971 39.205 44 34 44 24c0-1.341-.138-2.65-.389-3.917z" fill="#1976d2"/></svg><svg fill="none" viewBox="0 0 24 24" id="heart" xmlns="http://www.w3.org/2000/svg"><path d="M20.458 4.591a5.255 5.255 0 0 0-1.708-1.177 5.122 5.122 0 0 0-4.028 0 5.255 5.255 0 0 0-1.708 1.177L12 5.638 10.986 4.59a5.182 5.182 0 0 0-3.722-1.59 5.183 5.183 0 0 0-3.722 1.59A5.52 5.52 0 0 0 2 8.431a5.52 5.52 0 0 0 1.542 3.841l1.014 1.047L12 21l7.444-7.681 1.014-1.047a5.446 5.446 0 0 0 1.141-1.761 5.581 5.581 0 0 0 0-4.158 5.445 5.445 0 0 0-1.141-1.762v0Z" stroke="#CD9663" stroke-width="2" stroke-linecap="round" stroke-linejoin="round"/></svg><svg fill="none" viewBox="0 0 20 18" id="heart-out-line" xmlns="http://www.w3.org/2000/svg"><path d="M17.612 2.415a4.73 4.73 0 0 0-1.537-1.047 4.659 4.659 0 0 0-3.626 0 4.731 4.731 0 0 0-1.536 1.047l-.913.93-.913-.93A4.693 4.693 0 0 0 5.737 1a4.693 4.693 0 0 0-3.35 1.415A4.875 4.875 0 0 0 1 5.828c0 1.28.5 2.509 1.388 3.414l.912.93L10 17l6.7-6.828.912-.93c.44-.448.79-.98 1.027-1.566a4.908 4.908 0 0 0 0-3.695 4.834 4.834 0 0 0-1.027-1.566v0Z" stroke="#CD9663" stroke-width="2" stroke-linecap="round" stroke-linejoin="round"/></svg><svg fill="none" viewBox="0 0 25 24" id="home" xmlns="http://www.w3.org/2000/svg"><path d="M3.5 10.956A4 4 0 0 1 5.044 7.8L12.5 2l7.456 5.799a4 4 0 0 1 1.544 3.157V20a2 2 0 0 1-2 2h-14a2 2 0 0 1-2-2v-9.044Z" stroke="#AAA" stroke-width="2" stroke-linecap="round" stroke-linejoin="round"/><path d="M9.5 21v-8h6v8" stroke="#AAA" stroke-width="2" stroke-linecap="round" stroke-linejoin="round"/></svg><svg fill="none" viewBox="0 0 57 20" id="influencer-tag" xmlns="http://www.w3.org/2000/svg"><path d="M3.035 8.886h3.869v2.857H3.035V20H.04V0h7.927v2.857h-4.93v6.029ZM9.7 0h9.261v2.857h-3.133V20h-2.996V2.857H9.699V0ZM22.987 8.438V1h1.514V8.438h-1.514ZM26.166 8.438V1h1.302c.388.546.755 1.066 1.101 1.56.35.493.697.985 1.043 1.476l1.36 1.924h.112V1h1.397V8.438h-1.286a3140.514 3140.514 0 0 0-2.15-3.036L27.67 3.457h-.11v4.981h-1.393ZM40.227 8.438V1h1.488v6.16h3.477v1.278h-4.965ZM49.283 8.568c-.748 0-1.352-.12-1.81-.36a2.245 2.245 0 0 1-1.006-1.027c-.208-.445-.312-.969-.312-1.57V1h1.482V5.517c0 .386.054.716.164.991.11.275.284.485.524.631.243.143.561.214.953.214.398 0 .716-.071.953-.214a1.21 1.21 0 0 0 .513-.631c.106-.275.159-.607.159-.996V1h1.482v4.616c0 .598-.11 1.12-.328 1.565a2.31 2.31 0 0 1-1.011 1.027c-.455.24-1.043.36-1.763.36ZM29.268 18.87v-7.438h1.302c.388.546.755 1.066 1.101 1.56.35.493.697.985 1.043 1.475l1.36 1.925h.111v-4.96h1.398V18.87h-1.286a2801.281 2801.281 0 0 0-2.15-3.036l-1.376-1.946h-.111V18.87h-1.392ZM40.797 19a4.608 4.608 0 0 1-1.641-.276 3.545 3.545 0 0 1-1.244-.793 3.534 3.534 0 0 1-.79-1.22 4.353 4.353 0 0 1-.27-1.56c0-.748.154-1.412.461-1.993.311-.584.75-1.041 1.319-1.372.568-.333 1.244-.5 2.027-.5a5.635 5.635 0 0 1 1.403.177c.219.056.42.118.603.188.187.066.351.137.492.214l-.116 1.366a5.027 5.027 0 0 0-.794-.401 3.934 3.934 0 0 0-.746-.225 3.662 3.662 0 0 0-.688-.068c-.466 0-.883.103-1.25.308-.363.205-.65.503-.857.892-.209.39-.313.86-.313 1.414 0 .358.053.697.16 1.017.108.316.27.596.486.84.215.243.484.434.805.573.324.136.702.204 1.133.204.169 0 .34-.01.513-.032a3.93 3.93 0 0 0 .519-.11c.173-.048.344-.114.513-.197.17-.084.337-.185.503-.303l.09 1.351a2.975 2.975 0 0 1-.497.23 4.911 4.911 0 0 1-1.191.245c-.212.02-.422.031-.63.031ZM34.127 7.264v1.174h1.456V5.355h3.186V4.176h-3.186v-1.95h3.372V1h-4.828V7.264ZM22.96 17.696v1.174h4.94v-1.216H24.41v-1.966H27.683v-1.153H24.41V12.647h3.452v-1.215H22.96V17.696ZM44.466 17.696v1.174h4.939v-1.216h-3.489v-1.966H49.188v-1.153H45.916V12.647h3.452v-1.215h-4.902V17.696Z" fill="#CD9663"/><path fill-rule="evenodd" clip-rule="evenodd" d="M50.773 18.87v-7.438h2.779c.6 0 1.106.068 1.52.203.412.132.723.351.93.657.212.306.318.72.318 1.242 0 .42-.084.803-.254 1.147-.166.345-.437.62-.815.824-.17.092-.367.164-.59.215l.728.995c.17.23.347.475.534.736l.556.761c.184.247.344.466.482.658h-1.694c-.208-.3-.41-.586-.604-.861-.19-.278-.377-.548-.56-.808l-.774-1.111h-1.106v2.78h-1.45Zm1.45-3.912h1.059c.332 0 .609-.039.831-.115a.948.948 0 0 0 .508-.391c.113-.184.17-.433.17-.746 0-.243-.04-.438-.117-.584a.802.802 0 0 0-.302-.334 1.16 1.16 0 0 0-.418-.151 2.777 2.777 0 0 0-.45-.037h-1.28v2.358Z" fill="#CD9663"/></svg><svg fill="none" viewBox="0 0 25 24" id="info" xmlns="http://www.w3.org/2000/svg"><path d="M12.5 22c5.523 0 10-4.477 10-10s-4.477-10-10-10-10 4.477-10 10 4.477 10 10 10ZM12.5 16v-4M12.5 8h.01" stroke="currentColor" stroke-width="2" stroke-linecap="round" stroke-linejoin="round"/></svg><svg fill="none" viewBox="0 0 16 16" id="likes" xmlns="http://www.w3.org/2000/svg"><path d="M13.075 3.884a3.172 3.172 0 0 0-1.025-.654 3.286 3.286 0 0 0-2.417 0 3.171 3.171 0 0 0-1.025.654L8 4.465l-.609-.58A3.234 3.234 0 0 0 5.158 3c-.837 0-1.64.318-2.233.884A2.95 2.95 0 0 0 2 6.018c0 .8.333 1.567.925 2.133l.609.582L8 13l4.466-4.267.609-.582c.293-.28.526-.612.684-.979a2.9 2.9 0 0 0 0-2.31 3.013 3.013 0 0 0-.684-.978Z" fill="#AAA" stroke="#AAA" stroke-width="2" stroke-linecap="round" stroke-linejoin="round"/></svg><svg fill="none" viewBox="0 0 24 24" id="loading" xmlns="http://www.w3.org/2000/svg"><g clip-rule="evenodd" fill="#000001" fill-rule="evenodd"><path d="M12 2.5a9.5 9.5 0 1 0 0 19 9.5 9.5 0 0 0 0-19zM1 12C1 5.925 5.925 1 12 1s11 4.925 11 11-4.925 11-11 11S1 18.075 1 12z" opacity=".2"/><path d="M11.25 1.75A.75.75 0 0 1 12 1c6.075 0 11 4.925 11 11a.75.75 0 0 1-1.5 0A9.5 9.5 0 0 0 12 2.5a.75.75 0 0 1-.75-.75z"/></g></svg><svg fill="currentColor" viewBox="0 0 24 24" id="location" xmlns="http://www.w3.org/2000/svg"><path fill-rule="evenodd" clip-rule="evenodd" d="M11.445 23.832 12 23l.555.832a1 1 0 0 1-1.11 0Zm0 0L12 23c.555.832.556.831.556.831l.002-.001.007-.005.023-.015.082-.057c.072-.05.174-.12.302-.214a31.433 31.433 0 0 0 4.254-3.727C19.516 17.397 22 13.903 22 10a10 10 0 0 0-20 0c0 3.902 2.484 7.396 4.774 9.813a31.428 31.428 0 0 0 4.254 3.726 18.887 18.887 0 0 0 .384.27l.023.016.007.005.003.002ZM8 10a4 4 0 1 1 8 0 4 4 0 0 1-8 0Z"/></svg><svg fill="none" viewBox="0 0 24 24" id="location-full" xmlns="http://www.w3.org/2000/svg"><path d="M21 10c0 7-9 13-9 13s-9-6-9-13a9 9 0 1 1 18 0Z" stroke="#444" stroke-width="2" stroke-linecap="round" stroke-linejoin="round"/><path d="M12 13a3 3 0 1 0 0-6 3 3 0 0 0 0 6Z" stroke="#444" stroke-width="2" stroke-linecap="round" stroke-linejoin="round"/></svg><svg fill="none" viewBox="0 0 14 14" id="logo-discus" xmlns="http://www.w3.org/2000/svg"><path d="M13 6.667a5.587 5.587 0 0 1-.6 2.533 5.667 5.667 0 0 1-5.067 3.133 5.588 5.588 0 0 1-2.533-.6L1 13l1.267-3.8a5.586 5.586 0 0 1-.6-2.533A5.667 5.667 0 0 1 4.8 1.6 5.587 5.587 0 0 1 7.333 1h.334A5.653 5.653 0 0 1 13 6.333v.334Z" fill="#AAA" stroke="#AAA" stroke-width="2" stroke-linecap="round" stroke-linejoin="round"/></svg><svg fill="none" viewBox="0 0 14 12" id="logo-likes-grey" xmlns="http://www.w3.org/2000/svg"><path d="M12.075 1.884a3.172 3.172 0 0 0-1.025-.654 3.286 3.286 0 0 0-2.417 0 3.171 3.171 0 0 0-1.025.654L7 2.465l-.609-.58A3.234 3.234 0 0 0 4.158 1c-.837 0-1.64.318-2.233.884A2.95 2.95 0 0 0 1 4.018c0 .8.333 1.567.925 2.133l.609.582L7 11l4.466-4.267.609-.582c.293-.28.526-.612.684-.979a2.9 2.9 0 0 0 0-2.31 3.013 3.013 0 0 0-.684-.978Z" fill="#AAA" stroke="#AAA" stroke-width="2" stroke-linecap="round" stroke-linejoin="round"/></svg><svg fill="none" viewBox="0 0 24 24" id="mail" xmlns="http://www.w3.org/2000/svg"><path d="M4 4h16c1.1 0 2 .9 2 2v12c0 1.1-.9 2-2 2H4c-1.1 0-2-.9-2-2V6c0-1.1.9-2 2-2Z"/><path d="m22 6-10 7L2 6"/></svg><svg fill="none" viewBox="0 0 24 24" id="map" xmlns="http://www.w3.org/2000/svg"><path d="M21 10c0 7-9 13-9 13s-9-6-9-13a9 9 0 1 1 18 0Z" stroke="#444" stroke-width="2" stroke-linecap="round" stroke-linejoin="round"/><path d="M12 13a3 3 0 1 0 0-6 3 3 0 0 0 0 6Z" stroke="#444" stroke-width="2" stroke-linecap="round" stroke-linejoin="round"/></svg><svg fill="none" viewBox="0 0 24 24" id="minus" xmlns="http://www.w3.org/2000/svg"><path d="M5 12h14" stroke="currentColor" stroke-width="2.2" stroke-linecap="round" stroke-linejoin="round"/></svg><svg fill="none" viewBox="0 0 24 24" id="more" xmlns="http://www.w3.org/2000/svg"><path d="M12 13a1 1 0 1 0 0-2 1 1 0 0 0 0 2ZM12 6a1 1 0 1 0 0-2 1 1 0 0 0 0 2ZM12 20a1 1 0 1 0 0-2 1 1 0 0 0 0 2Z" stroke="#444" stroke-width="2" stroke-linecap="round" stroke-linejoin="round"/></svg><svg fill="none" viewBox="0 0 24 24" id="phone" xmlns="http://www.w3.org/2000/svg"><path d="M17 2H7a2 2 0 0 0-2 2v16a2 2 0 0 0 2 2h10a2 2 0 0 0 2-2V4a2 2 0 0 0-2-2ZM12 18h.01"/></svg><svg fill="none" viewBox="0 0 24 24" id="plus" xmlns="http://www.w3.org/2000/svg"><path d="M12 5v14" stroke="currentColor" stroke-width="2.2" stroke-linecap="round" stroke-linejoin="round"/><path d="M5 12h14" stroke="currentColor" stroke-width="2" stroke-linecap="round" stroke-linejoin="round"/></svg><svg fill="none" viewBox="0 0 24 24" id="profile" xmlns="http://www.w3.org/2000/svg"><mask id="bsa" style="mask-type:alpha" maskUnits="userSpaceOnUse" x="1" y="1" width="22" height="22"><rect x="1" y="1" width="22" height="22" rx="11" fill="#C4C4C4"/></mask><g mask="url(#bsa)" stroke="#AAA" stroke-width="2"><circle cx="12" cy="9.5" r="3.5"/><path d="M19 21.364c0 .794-.149 1.261-.34 1.553-.182.277-.474.505-.994.682-.539.183-1.266.29-2.236.346C14.466 24 13.334 24 12 24c-1.333 0-2.469 0-3.437-.049-.974-.048-1.714-.143-2.266-.307-.542-.161-.828-.367-.993-.587-.165-.22-.304-.58-.304-1.239C5 18.358 8.209 16 12 16c1.9 0 3.682.498 4.96 1.413 1.25.894 2.04 2.194 2.04 3.95Z"/><rect x="2" y="2" width="20" height="20" rx="10"/></g></svg><svg fill="none" viewBox="0 0 14 14" id="rating-star" xmlns="http://www.w3.org/2000/svg"><path d="m7 1 1.854 3.95L13 5.587l-3 3.072.708 4.341L7 10.95 3.292 13 4 8.66 1 5.586l4.146-.637L7 1Z" fill="currentColor" stroke="currentColor" stroke-width="2" stroke-linecap="round" stroke-linejoin="round"/></svg><svg viewBox="0 0 24 24" id="reveal" xmlns="http://www.w3.org/2000/svg"><path fill-rule="evenodd" clip-rule="evenodd" d="m5.414 20 5.293-5.293a1 1 0 0 0-1.414-1.414L4 18.586V15a1 1 0 1 0-2 0v6a.997.997 0 0 0 .29.705l.005.004c.194.193.448.29.702.291H9a1 1 0 1 0 0-2H5.414ZM21.924 2.617a.997.997 0 0 0-.215-.322l-.004-.004A.997.997 0 0 0 21 2h-6a1 1 0 1 0 0 2h3.586l-5.293 5.293a1 1 0 0 0 1.414 1.414L20 5.414V9a1 1 0 1 0 2 0V2.997a.996.996 0 0 0-.076-.38Z"/></svg><svg fill="none" viewBox="0 0 4 4" id="round" xmlns="http://www.w3.org/2000/svg"><circle cx="2" cy="2" r="2" fill="#AAA"/></svg><svg fill="none" viewBox="0 0 24 24" id="search" xmlns="http://www.w3.org/2000/svg"><path d="M11 19a8 8 0 1 0 0-16 8 8 0 0 0 0 16ZM21 21l-4.35-4.35" stroke="#444" stroke-width="2" stroke-linecap="round" stroke-linejoin="round"/></svg><svg fill="none" viewBox="0 0 24 24" id="share" xmlns="http://www.w3.org/2000/svg"><path d="M18 8a3 3 0 1 0 0-6 3 3 0 0 0 0 6ZM6 15a3 3 0 1 0 0-6 3 3 0 0 0 0 6ZM18 22a3 3 0 1 0 0-6 3 3 0 0 0 0 6ZM8.59 13.51l6.83 3.98M15.41 6.51l-6.82 3.98" stroke="#CD9663" stroke-width="2" stroke-linecap="round" stroke-linejoin="round"/></svg><svg fill="none" viewBox="0 0 24 24" id="share-link" xmlns="http://www.w3.org/2000/svg"><path d="M14 8C8 8 4 14 3 20c4-6 7.833-7 11-7v4s7-5.5 7-6.5S14 4 14 4v4Z" stroke="#CD9663" stroke-width="2" stroke-linejoin="round"/></svg><svg viewBox="0 0 24 24" id="shopping-bag" xmlns="http://www.w3.org/2000/svg"><path d="m19.5 19 .98.196c.003-.01.005-.021.006-.032L19.5 19Zm1.5-9 .986.164A1 1 0 0 0 21 9v1ZM3 10V9a1 1 0 0 0-.986 1.164L3 10Zm1.5 9-.986.164.005.032L4.5 19ZM7.678 6.608l-.98-.196.98.196Zm8.644 0-.981.196.98-.196ZM10 14.5a1 1 0 1 0 0 2v-2Zm4 2a1 1 0 1 0 0-2v2ZM6.64 22h10.72v-2H6.64v2Zm13.846-2.836 1.5-9-1.972-.328-1.5 9 1.972.328ZM21 9H3v2h18V9ZM2.014 10.164l1.5 9 1.972-.328-1.5-9-1.972.328ZM17.36 22c.835 0 1.56-.45 2.056-.934.505-.493.924-1.165 1.065-1.87l-1.962-.392c-.046.23-.22.558-.5.831-.288.282-.54.365-.659.365v2ZM6.64 20c-.12 0-.37-.083-.659-.365-.28-.274-.454-.601-.5-.831l-1.962.392c.141.705.56 1.377 1.065 1.87.496.485 1.221.934 2.056.934v-2Zm1.34-9.804.679-3.392-1.961-.392-.679 3.392 1.962.392ZM9.64 6h4.72V4H9.64v2Zm5.701.804.678 3.392 1.962-.392-.679-3.392-1.961.392ZM14.361 6a1 1 0 0 1 .98.804l1.961-.392A3 3 0 0 0 14.36 4v2Zm-5.702.804A1 1 0 0 1 9.639 6V4a3 3 0 0 0-2.941 2.412l1.961.392ZM10 16.5h4v-2h-4v2Z"/></svg><svg fill="none" viewBox="0 0 24 24" id="shopping-bag-with-circul" xmlns="http://www.w3.org/2000/svg"><path d="M6 2 3 6v14a2 2 0 0 0 2 2h14a2 2 0 0 0 2-2V6l-3-4H6ZM3 6h18" stroke="#AAA" stroke-width="2" stroke-linecap="round" stroke-linejoin="round"/><path d="M16 10a4 4 0 1 1-8 0" stroke="#AAA" stroke-width="2" stroke-linecap="round" stroke-linejoin="round"/><rect x="16" width="8" height="8" rx="4" fill="#CD9663"/></svg><svg fill="none" viewBox="0 0 24 24" id="small-logo" xmlns="http://www.w3.org/2000/svg"><path d="M5.509 10.886h3.884v2.857H5.509V22H2.5V2h7.96v2.857H5.509v6.029ZM12.2 2h9.3v2.857h-3.145V22h-3.01V4.857H12.2V2Z" fill="#CD9663"/></svg><svg fill="none" viewBox="0 0 24 24" id="sorting-down" xmlns="http://www.w3.org/2000/svg"><path d="M12 6v12M15 15l-3 3-3-3" stroke="#444" stroke-width="1.5" stroke-linecap="round" stroke-linejoin="round"/></svg><svg fill="none" viewBox="0 0 24 24" id="sorting-top" xmlns="http://www.w3.org/2000/svg"><path d="M12 18V6M9 9l3-3 3 3" stroke="#444" stroke-width="1.5" stroke-linecap="round" stroke-linejoin="round"/></svg><svg fill="none" viewBox="0 0 24 24" id="sorts" xmlns="http://www.w3.org/2000/svg"><path d="M7 18V6M4 9l3-3 3 3M16 6v12M19 15l-3 3-3-3" stroke="#444" stroke-width="1.5" stroke-linecap="round" stroke-linejoin="round"/></svg><svg fill="none" viewBox="0 0 14 14" id="star-empty" xmlns="http://www.w3.org/2000/svg"><path d="m7 1 1.854 3.95L13 5.587l-3 3.072.708 4.341L7 10.95 3.292 13 4 8.66 1 5.586l4.146-.637L7 1Z" fill="#D4D4D4" stroke="#D4D4D4" stroke-width="2" stroke-linecap="round" stroke-linejoin="round"/></svg><svg fill="none" viewBox="0 0 48 48" id="step" xmlns="http://www.w3.org/2000/svg"><rect x="1" y="1" width="46" height="46" rx="23" fill="#fff" stroke="#CECECE" stroke-width="2" stroke-linecap="round" stroke-dasharray="2 8"/></svg><svg fill="none" viewBox="0 0 1120 2" id="step-divider" xmlns="http://www.w3.org/2000/svg"><path stroke="#CECECE" stroke-width="2" stroke-linecap="round" stroke-dasharray="4 5" d="M1 1h1118"/></svg><svg fill="none" viewBox="0 0 24 24" id="telegram" xmlns="http://www.w3.org/2000/svg"><g clip-path="url(#cia)"><path d="M12 24c6.627 0 12-5.373 12-12S18.627 0 12 0 0 5.373 0 12s5.373 12 12 12Z" fill="#34AADF"/><path d="M4.994 11.896s6-2.463 8.081-3.33a334.16 334.16 0 0 1 3.503-1.456s1.249-.486 1.145.693c-.035.486-.313 2.185-.59 4.024-.416 2.6-.867 5.445-.867 5.445s-.07.797-.659.936c-.59.139-1.56-.485-1.734-.624-.139-.104-2.601-1.665-3.503-2.428-.243-.208-.52-.624.035-1.11a132.406 132.406 0 0 0 3.641-3.468c.417-.416.833-1.387-.901-.208-2.463 1.7-4.89 3.295-4.89 3.295s-.556.347-1.596.034c-1.04-.312-2.254-.728-2.254-.728s-.833-.52.59-1.075Z" fill="#fff"/></g><defs><clipPath id="cia"><path fill="#fff" d="M0 0h24v24H0z"/></clipPath></defs></svg><svg fill="none" viewBox="0 0 24 24" id="thumbs-up" xmlns="http://www.w3.org/2000/svg"><path d="M7 22H4a2 2 0 0 1-2-2v-7a2 2 0 0 1 2-2h3m7-2V5a3 3 0 0 0-3-3l-4 9v11h11.28a2 2 0 0 0 2-1.7l1.38-9a1.999 1.999 0 0 0-2-2.3H14Z" stroke="#CD9663" stroke-width="2.5" stroke-linecap="round" stroke-linejoin="round"/></svg><svg fill="none" viewBox="0 0 24 24" id="trash" xmlns="http://www.w3.org/2000/svg"><path d="M3 6h18M19 6v14a2 2 0 0 1-2 2H7a2 2 0 0 1-2-2V6m3 0V4a2 2 0 0 1 2-2h4a2 2 0 0 1 2 2v2M10 11v6M14 11v6" stroke="#AAA" stroke-width="2" stroke-linecap="round" stroke-linejoin="round"/></svg><svg fill="none" viewBox="0 0 24 24" id="truck" xmlns="http://www.w3.org/2000/svg"><path d="M16 3H1v13h15V3ZM16 8h4l3 3v5h-7V8ZM5.5 21a2.5 2.5 0 1 0 0-5 2.5 2.5 0 0 0 0 5ZM18.5 21a2.5 2.5 0 1 0 0-5 2.5 2.5 0 0 0 0 5Z" stroke="#444" stroke-width="2" stroke-linecap="round" stroke-linejoin="round"/></svg><svg fill="none" viewBox="0 0 24 24" id="twitter" xmlns="http://www.w3.org/2000/svg"><g clip-path="url(#cma)"><rect width="24" height="24" rx="12" fill="#1DA1F2"/><path d="M20 7.04c-.588.26-1.22.436-1.885.516a3.29 3.29 0 0 0 1.443-1.817 6.555 6.555 0 0 1-2.084.797A3.283 3.283 0 0 0 11.88 9.53 9.323 9.323 0 0 1 5.114 6.1a3.282 3.282 0 0 0 1.016 4.382 3.276 3.276 0 0 1-1.487-.41v.042a3.284 3.284 0 0 0 2.634 3.217 3.304 3.304 0 0 1-1.483.057 3.284 3.284 0 0 0 3.067 2.278A6.589 6.589 0 0 1 4 17.026 9.286 9.286 0 0 0 9.031 18.5c6.04 0 9.34-5 9.34-9.337 0-.14-.003-.283-.01-.424A6.672 6.672 0 0 0 20 7.041L20 7.04Z" fill="#fff"/></g><defs><clipPath id="cma"><path fill="#fff" d="M0 0h24v24H0z"/></clipPath></defs></svg><svg fill="none" viewBox="0 0 60 60" id="upload-img" xmlns="http://www.w3.org/2000/svg"><path d="M57.5 47.5a5 5 0 0 1-5 5h-45a5 5 0 0 1-5-5V20a5 5 0 0 1 5-5h10l5-7.5h15l5 7.5h10a5 5 0 0 1 5 5v27.5Z" stroke="#AAA" stroke-width="2.5" stroke-linecap="round" stroke-linejoin="round"/><path d="M30 42.5c5.523 0 10-4.477 10-10s-4.477-10-10-10-10 4.477-10 10 4.477 10 10 10Z" stroke="#AAA" stroke-width="2.5" stroke-linecap="round" stroke-linejoin="round"/></svg><svg fill="none" viewBox="0 0 40 40" id="user" xmlns="http://www.w3.org/2000/svg"><mask id="cqa" style="mask-type:alpha" maskUnits="userSpaceOnUse" x="1" y="1" width="38" height="38"><rect x="1" y="1" width="38" height="38" rx="19" fill="#C4C4C4"/></mask><g mask="url(#cqa)" fill="#CD9663"><path d="M27 16a7 7 0 1 1-14 0 7 7 0 0 1 14 0ZM20 24c-6.158 0-11.387 3.976-13.261 9.5L20 39l13.216-5.63C31.304 27.913 26.11 24 20 24Z"/><path fill-rule="evenodd" clip-rule="evenodd" d="M3 20c0 9.389 7.611 17 17 17s17-7.611 17-17S29.389 3 20 3 3 10.611 3 20ZM20 1C9.507 1 1 9.507 1 20s8.507 19 19 19 19-8.507 19-19S30.493 1 20 1Z"/></g></svg><svg fill="none" viewBox="0 0 40 40" id="user-comments" xmlns="http://www.w3.org/2000/svg"><mask id="coa" style="mask-type:alpha" maskUnits="userSpaceOnUse" x="0" y="0" width="40" height="40"><rect width="40" height="40" rx="20" fill="#C4C4C4"/></mask><g mask="url(#coa)"><rect width="40" height="40" rx="20" fill="#F4F4F4"/><circle cx="20" cy="15.238" r="6.119" fill="#CD9663" stroke="#CD9663" stroke-width="3"/><path d="M31.834 35.671c0 1.393-.254 2.246-.605 2.797-.335.524-.86.933-1.743 1.242-.917.32-2.142.505-3.762.6-1.611.094-3.5.095-5.724.095-2.22 0-4.116 0-5.734-.084-1.627-.083-2.871-.246-3.807-.532-.918-.281-1.431-.647-1.74-1.07-.312-.428-.552-1.103-.552-2.269 0-6.13 5.503-10.188 11.833-10.188 3.184 0 6.185.857 8.349 2.451 2.12 1.561 3.485 3.853 3.485 6.958Z" fill="#CD9663" stroke="#CD9663" stroke-width="3"/></g></svg><svg fill="none" viewBox="0 0 16 16" id="user-logo-sm" xmlns="http://www.w3.org/2000/svg"><circle cx="8" cy="4.25" r="2.25" fill="#AAA" stroke="#AAA" stroke-width="2"/><path d="M13 13c0 1-1.686 1-5 1s-5 0-5-1c0-1.898 2.429-3.5 5-3.5s5 1.602 5 3.5Z" fill="#AAA" stroke="#AAA" stroke-width="2"/></svg><svg fill="none" viewBox="0 0 14 12" id="view_logo" xmlns="http://www.w3.org/2000/svg"><path fill-rule="evenodd" clip-rule="evenodd" d="M10.5 0h-7C1.567 0 0 1.343 0 3v6c0 1.657 1.567 3 3.5 3h7c1.933 0 3.5-1.343 3.5-3V3c0-1.657-1.567-3-3.5-3ZM6.72 5.016a1.5 1.5 0 1 0-.44 2.968 1.5 1.5 0 0 0 .44-2.968ZM4.888 3.393a3.5 3.5 0 1 1 3.224 6.214 3.5 3.5 0 0 1-3.224-6.214ZM11 2a1 1 0 1 0 0 2h.01a1 1 0 1 0 0-2H11Z" fill="#AAA"/></svg><svg fill="none" viewBox="0 0 92 93" id="vk" xmlns="http://www.w3.org/2000/svg"><rect fill="#2787f5" height="91.56" rx="20" width="91.56" y=".804"/><path clip-rule="evenodd" d="M72.496 33.4c.387-1.21 0-2.1-1.841-2.1h-6.09c-1.548 0-2.262.77-2.65 1.616 0 0-3.096 7.08-7.483 11.68-1.419 1.332-2.064 1.755-2.838 1.755-.387 0-.948-.423-.948-1.634V33.401c0-1.453-.449-2.1-1.74-2.1h-9.569c-.967 0-1.55.674-1.55 1.313 0 1.377 2.194 1.694 2.42 5.567v8.412c0 1.845-.355 2.18-1.129 2.18-2.064 0-7.086-7.113-10.064-15.252-.584-1.581-1.17-2.22-2.725-2.22h-6.09c-1.74 0-2.088.768-2.088 1.615 0 1.513 2.065 9.017 9.613 18.942 5.032 6.778 12.121 10.452 18.573 10.452 3.87 0 4.35-.816 4.35-2.221v-5.123c0-1.632.366-1.958 1.592-1.958.903 0 2.451.424 6.064 3.692 4.129 3.873 4.81 5.61 7.132 5.61h6.09c1.74 0 2.61-.816 2.108-2.426-.55-1.605-2.521-3.934-5.137-6.694-1.42-1.574-3.548-3.268-4.193-4.116-.903-1.089-.645-1.573 0-2.541 0 0 7.419-9.804 8.193-13.132z" fill="#fff" fill-rule="evenodd"/></svg><svg fill="none" viewBox="0 0 24 24" id="watsup" xmlns="http://www.w3.org/2000/svg"><rect width="24" height="24" rx="12" fill="#67BD5D"/><path d="M18.195 5.835A7.876 7.876 0 0 0 12.557 3.5h-.014c-4.365 0-7.956 3.565-7.956 7.896v.06a8.306 8.306 0 0 0 1.046 3.936L4.5 19.5l4.222-1.081a7.817 7.817 0 0 0 3.809.951c4.38-.024 7.972-3.608 7.969-7.956a7.822 7.822 0 0 0-2.305-5.579ZM12.557 18.03a6.507 6.507 0 0 1-3.351-.908l-.262-.13-2.514.649.654-2.465-.174-.26a6.523 6.523 0 0 1-.99-3.454c0-3.598 2.983-6.56 6.61-6.56 3.625 0 6.61 2.962 6.61 6.56a6.555 6.555 0 0 1-3.124 5.573 6.38 6.38 0 0 1-3.438.995h-.021Zm3.851-4.8-.479-.216s-.697-.303-1.133-.52c-.043 0-.087-.043-.13-.043a.635.635 0 0 0-.306.087c-.092.054-.043.043-.653.735a.24.24 0 0 1-.218.13h-.044a.333.333 0 0 1-.174-.087l-.218-.086a4.234 4.234 0 0 1-1.263-.822c-.087-.086-.218-.173-.305-.26a4.847 4.847 0 0 1-.828-1.037l-.044-.087a.63.63 0 0 1-.087-.173.322.322 0 0 1 .044-.216c.04-.065.174-.216.305-.346.13-.13.13-.216.218-.302a.531.531 0 0 0 .087-.433 16.82 16.82 0 0 0-.697-1.643.506.506 0 0 0-.306-.216h-.479c-.087 0-.174.043-.261.043l-.044.043c-.087.043-.174.13-.261.173-.087.043-.13.173-.218.26a2.194 2.194 0 0 0-.48 1.34c.005.343.08.681.218.995l.044.13a7.21 7.21 0 0 0 1.612 2.205l.175.173c.126.104.243.22.348.346a7.8 7.8 0 0 0 3.133 1.643c.13.043.305.043.436.087h.435c.228-.012.451-.07.654-.173.107-.049.209-.106.305-.174l.087-.086c.087-.086.174-.13.262-.216.085-.075.158-.163.217-.26.084-.193.143-.397.175-.605v-.303a.546.546 0 0 0-.13-.086" fill="#fff"/></svg></svg>