<?xml version="1.0" encoding="utf-8"?><svg viewBox="0 0 96 93" xmlns="http://www.w3.org/2000/svg" xmlns:xlink="http://www.w3.org/1999/xlink"><style>:root>svg{display:none}:root>svg:target{display:block}</style><svg fill="none" viewBox="0 0 24 24" id="arrow" xmlns="http://www.w3.org/2000/svg"><path d="m18 9-6 6-6-6"/></svg><svg fill="none" viewBox="0 0 32 32" id="arrowGoLeft" xmlns="http://www.w3.org/2000/svg"><path d="M8 16h16M8 16l8-8m-8 8 8 8" stroke="#AAA" stroke-width="2.5" stroke-linecap="round" stroke-linejoin="round"/></svg><svg fill="none" viewBox="0 0 24 24" id="camera" xmlns="http://www.w3.org/2000/svg"><path d="M17 3H7C4.239 3 2 5.015 2 7.5v9C2 18.985 4.239 21 7 21h10c2.761 0 5-2.015 5-4.5v-9C22 5.015 19.761 3 17 3Z"/><path d="M15.457 11.913a4 4 0 1 1-7.912 1.174 4 4 0 0 1 7.912-1.174ZM17.5 7.5h.01"/></svg><svg fill="none" viewBox="0 0 24 24" id="catalog" xmlns="http://www.w3.org/2000/svg"><g clip-path="url(#clip10_45829)"><path d="M13.5 16.5a6.5 6.5 0 1 1 0-13 6.5 6.5 0 0 1 0 13Zm7.5 2-3-3M3 12.5h.5M3 16.5h2.5M3 20.5h10"/></g></svg><svg fill="none" viewBox="0 0 24 24" id="categories" xmlns="http://www.w3.org/2000/svg"><path d="M20 8v12H4V8M22 4H2v4h20V4ZM10 12h4" stroke="#444" stroke-width="1.5" stroke-linecap="round" stroke-linejoin="round"/></svg><svg fill="none" viewBox="0 0 14 10" id="checkbox" xmlns="http://www.w3.org/2000/svg"><path d="M13 1 4.75 9 1 5.364" stroke="#CD9663" stroke-width="2" stroke-linecap="round" stroke-linejoin="round"/></svg><svg fill="none" viewBox="0 0 24 24" id="clock" xmlns="http://www.w3.org/2000/svg"><path d="M12 22c5.523 0 10-4.477 10-10S17.523 2 12 2 2 6.477 2 12s4.477 10 10 10Z"/><path d="M12 6v6l4 2"/></svg><svg fill="none" viewBox="0 0 24 24" id="cloth" xmlns="http://www.w3.org/2000/svg"><path d="M14.5 3.5c-.313.654-1.25 1.308-2.5 1.308S9.812 4.154 9.5 3.5c0 0-2.598.654-3.75 1.308C4.598 5.462 2 8.404 2 8.404l1.875 2.615L6.5 10s.5 2.327.5 9.52c1.563.98 5 .98 5 .98s3.438 0 5-.98c0-7.193.5-9.52.5-9.52l2.625 1.02L22 8.403s-2.598-2.942-3.75-3.596C17.098 4.154 14.5 3.5 14.5 3.5Z"/></svg><svg fill="none" viewBox="0 0 24 24" id="cloud" xmlns="http://www.w3.org/2000/svg"><path d="M18 10h-1.26A8 8 0 1 0 9 20h9a5 5 0 0 0 0-10Z"/></svg><svg viewBox="0 0 24 24" id="collapse" xmlns="http://www.w3.org/2000/svg"><path fill-rule="evenodd" clip-rule="evenodd" d="M10.924 13.617A.997.997 0 0 0 10 13H4a1 1 0 1 0 0 2h3.586l-5.293 5.293a1 1 0 1 0 1.414 1.414L9 16.414V20a1 1 0 1 0 2 0v-6.003a.996.996 0 0 0-.076-.38ZM16.414 9l5.293-5.293a1 1 0 0 0-1.414-1.414L15 7.586V4a1 1 0 1 0-2 0v6a.997.997 0 0 0 .997 1H20a1 1 0 1 0 0-2h-3.586Z"/></svg><svg fill="none" viewBox="0 0 24 24" id="compass" xmlns="http://www.w3.org/2000/svg"><path d="M12 22c5.523 0 10-4.477 10-10S17.523 2 12 2 2 6.477 2 12s4.477 10 10 10Z" stroke="#CD9663" stroke-width="2" stroke-linecap="round" stroke-linejoin="round"/><path d="m16.24 7.76-2.12 6.36-6.36 2.12 2.12-6.36 6.36-2.12Z" stroke="#CD9663" stroke-width="2" stroke-linecap="round" stroke-linejoin="round"/></svg><svg fill="none" viewBox="0 0 24 24" id="copy" xmlns="http://www.w3.org/2000/svg"><g clip-path="url(#ala)" stroke="#CD9663" stroke-width="2" stroke-linecap="round" stroke-linejoin="round"><path d="M20 9h-9a2 2 0 0 0-2 2v9a2 2 0 0 0 2 2h9a2 2 0 0 0 2-2v-9a2 2 0 0 0-2-2Z"/><path d="M5 15H4a2 2 0 0 1-2-2V4a2 2 0 0 1 2-2h9a2 2 0 0 1 2 2v1"/></g><defs><clipPath id="ala"><path fill="#fff" d="M0 0h24v24H0z"/></clipPath></defs></svg><svg viewBox="0 0 24 24" id="cross" xmlns="http://www.w3.org/2000/svg"><path d="M18.707 6.707a1 1 0 0 0-1.414-1.414L12 10.586 6.707 5.293a1 1 0 0 0-1.414 1.414L10.586 12l-5.293 5.293a1 1 0 1 0 1.414 1.414L12 13.414l5.293 5.293a1 1 0 0 0 1.414-1.414L13.414 12l5.293-5.293Z"/></svg><svg fill="none" viewBox="0 0 24 24" id="density-grid" xmlns="http://www.w3.org/2000/svg"><path d="M10 3H3v7h7V3ZM21 3h-7v7h7V3ZM21 14h-7v7h7v-7ZM10 14H3v7h7v-7Z" stroke="#444" stroke-width="1.5" stroke-linecap="round" stroke-linejoin="round"/></svg><svg fill="none" viewBox="0 0 24 24" id="density-tile" xmlns="http://www.w3.org/2000/svg"><path d="M21 3H3v7h18V3ZM21 14H3v7h18v-7Z" stroke="#444" stroke-width="1.5" stroke-linecap="round" stroke-linejoin="round"/></svg><svg fill="none" viewBox="0 0 24 24" id="external-link" xmlns="http://www.w3.org/2000/svg"><path d="M18 13v6a2 2 0 0 1-2 2H5a2 2 0 0 1-2-2V8a2 2 0 0 1 2-2h6M15 3h6v6M10 14 21 3" stroke="#CD9663" stroke-width="2" stroke-linecap="round" stroke-linejoin="round"/></svg><svg fill="none" viewBox="0 0 24 24" id="facebook" xmlns="http://www.w3.org/2000/svg"><g clip-path="url(#aqa)"><path d="M12 24c6.627 0 12-5.373 12-12S18.627 0 12 0 0 5.373 0 12s5.373 12 12 12Z" fill="#3C5A9A"/><path d="M15.902 3.683h-2.658c-1.578 0-3.333.664-3.333 2.95.008.797 0 1.56 0 2.419H8.086v2.904h1.882v8.36h3.457v-8.415h2.282l.207-2.857h-2.548s.005-1.271 0-1.64c0-.904.94-.852.996-.852h1.541V3.683h-.001Z" fill="#fff"/></g><defs><clipPath id="aqa"><path fill="#fff" d="M0 0h24v24H0z"/></clipPath></defs></svg><svg viewBox="0 0 24 24" id="favourite" xmlns="http://www.w3.org/2000/svg"><path d="M20.458 4.591a5.255 5.255 0 0 0-1.708-1.177 5.122 5.122 0 0 0-4.028 0 5.255 5.255 0 0 0-1.708 1.177L12 5.638 10.986 4.59a5.182 5.182 0 0 0-3.722-1.59 5.183 5.183 0 0 0-3.722 1.59A5.52 5.52 0 0 0 2 8.431a5.52 5.52 0 0 0 1.542 3.841l1.014 1.047L12 21l7.444-7.681 1.014-1.047a5.446 5.446 0 0 0 1.141-1.761 5.581 5.581 0 0 0 0-4.158 5.445 5.445 0 0 0-1.141-1.762Z"/></svg><svg fill="none" viewBox="0 0 25 24" id="feed" xmlns="http://www.w3.org/2000/svg"><path d="M19.5 3h-14a2 2 0 0 0-2 2v14a2 2 0 0 0 2 2h14a2 2 0 0 0 2-2V5a2 2 0 0 0-2-2ZM3.5 9h18"/></svg><svg fill="none" viewBox="0 0 24 24" id="filters" xmlns="http://www.w3.org/2000/svg"><path d="M18 20V10M12 20V4M6 20v-6" stroke="#444" stroke-width="1.5" stroke-linecap="round" stroke-linejoin="round"/></svg><svg fill="none" viewBox="0 0 24 24" id="go-up" xmlns="http://www.w3.org/2000/svg"><path d="M7.536 8.243 11.778 4l4.243 4.243M11.778 19.556V4" stroke="#444" stroke-width="2" stroke-linecap="round" stroke-linejoin="round"/></svg><svg viewBox="0 0 48 48" id="google" xmlns="http://www.w3.org/2000/svg"><path d="M43.611 20.083H42V20H24v8h11.303c-1.649 4.657-6.08 8-11.303 8-6.627 0-12-5.373-12-12s5.373-12 12-12c3.059 0 5.842 1.154 7.961 3.039l5.657-5.657C34.046 6.053 29.268 4 24 4 12.955 4 4 12.955 4 24s8.955 20 20 20 20-8.955 20-20c0-1.341-.138-2.65-.389-3.917z" fill="#ffc107"/><path d="m6.306 14.691 6.571 4.819C14.655 15.108 18.961 12 24 12c3.059 0 5.842 1.154 7.961 3.039l5.657-5.657C34.046 6.053 29.268 4 24 4 16.318 4 9.656 8.337 6.306 14.691z" fill="#ff3d00"/><path d="M24 44c5.166 0 9.86-1.977 13.409-5.192l-6.19-5.238A11.91 11.91 0 0 1 24 36c-5.202 0-9.619-3.317-11.283-7.946l-6.522 5.025C9.505 39.556 16.227 44 24 44z" fill="#4caf50"/><path d="M43.611 20.083H42V20H24v8h11.303a12.04 12.04 0 0 1-4.087 5.571l.003-.002 6.19 5.238C36.971 39.205 44 34 44 24c0-1.341-.138-2.65-.389-3.917z" fill="#1976d2"/></svg><svg fill="none" viewBox="0 0 24 24" id="heart" xmlns="http://www.w3.org/2000/svg"><path d="M20.458 4.591a5.255 5.255 0 0 0-1.708-1.177 5.122 5.122 0 0 0-4.028 0 5.255 5.255 0 0 0-1.708 1.177L12 5.638 10.986 4.59a5.182 5.182 0 0 0-3.722-1.59 5.183 5.183 0 0 0-3.722 1.59A5.52 5.52 0 0 0 2 8.431a5.52 5.52 0 0 0 1.542 3.841l1.014 1.047L12 21l7.444-7.681 1.014-1.047a5.446 5.446 0 0 0 1.141-1.761 5.581 5.581 0 0 0 0-4.158 5.445 5.445 0 0 0-1.141-1.762v0Z" stroke="#CD9663" stroke-width="2" stroke-linecap="round" stroke-linejoin="round"/></svg><svg fill="none" viewBox="0 0 25 24" id="home" xmlns="http://www.w3.org/2000/svg"><path d="M3.5 10.956A4 4 0 0 1 5.044 7.8L12.5 2l7.456 5.799a4 4 0 0 1 1.544 3.157V20a2 2 0 0 1-2 2h-14a2 2 0 0 1-2-2v-9.044Z" stroke="#AAA" stroke-width="2" stroke-linecap="round" stroke-linejoin="round"/><path d="M9.5 21v-8h6v8" stroke="#AAA" stroke-width="2" stroke-linecap="round" stroke-linejoin="round"/></svg><svg fill="none" viewBox="0 0 57 20" id="influencer-tag" xmlns="http://www.w3.org/2000/svg"><path d="M3.035 8.886h3.869v2.857H3.035V20H.04V0h7.927v2.857h-4.93v6.029ZM9.7 0h9.261v2.857h-3.133V20h-2.996V2.857H9.699V0ZM22.987 8.438V1h1.514V8.438h-1.514ZM26.166 8.438V1h1.302c.388.546.755 1.066 1.101 1.56.35.493.697.985 1.043 1.476l1.36 1.924h.112V1h1.397V8.438h-1.286a3140.514 3140.514 0 0 0-2.15-3.036L27.67 3.457h-.11v4.981h-1.393ZM40.227 8.438V1h1.488v6.16h3.477v1.278h-4.965ZM49.283 8.568c-.748 0-1.352-.12-1.81-.36a2.245 2.245 0 0 1-1.006-1.027c-.208-.445-.312-.969-.312-1.57V1h1.482V5.517c0 .386.054.716.164.991.11.275.284.485.524.631.243.143.561.214.953.214.398 0 .716-.071.953-.214a1.21 1.21 0 0 0 .513-.631c.106-.275.159-.607.159-.996V1h1.482v4.616c0 .598-.11 1.12-.328 1.565a2.31 2.31 0 0 1-1.011 1.027c-.455.24-1.043.36-1.763.36ZM29.268 18.87v-7.438h1.302c.388.546.755 1.066 1.101 1.56.35.493.697.985 1.043 1.475l1.36 1.925h.111v-4.96h1.398V18.87h-1.286a2801.281 2801.281 0 0 0-2.15-3.036l-1.376-1.946h-.111V18.87h-1.392ZM40.797 19a4.608 4.608 0 0 1-1.641-.276 3.545 3.545 0 0 1-1.244-.793 3.534 3.534 0 0 1-.79-1.22 4.353 4.353 0 0 1-.27-1.56c0-.748.154-1.412.461-1.993.311-.584.75-1.041 1.319-1.372.568-.333 1.244-.5 2.027-.5a5.635 5.635 0 0 1 1.403.177c.219.056.42.118.603.188.187.066.351.137.492.214l-.116 1.366a5.027 5.027 0 0 0-.794-.401 3.934 3.934 0 0 0-.746-.225 3.662 3.662 0 0 0-.688-.068c-.466 0-.883.103-1.25.308-.363.205-.65.503-.857.892-.209.39-.313.86-.313 1.414 0 .358.053.697.16 1.017.108.316.27.596.486.84.215.243.484.434.805.573.324.136.702.204 1.133.204.169 0 .34-.01.513-.032a3.93 3.93 0 0 0 .519-.11c.173-.048.344-.114.513-.197.17-.084.337-.185.503-.303l.09 1.351a2.975 2.975 0 0 1-.497.23 4.911 4.911 0 0 1-1.191.245c-.212.02-.422.031-.63.031ZM34.127 7.264v1.174h1.456V5.355h3.186V4.176h-3.186v-1.95h3.372V1h-4.828V7.264ZM22.96 17.696v1.174h4.94v-1.216H24.41v-1.966H27.683v-1.153H24.41V12.647h3.452v-1.215H22.96V17.696ZM44.466 17.696v1.174h4.939v-1.216h-3.489v-1.966H49.188v-1.153H45.916V12.647h3.452v-1.215h-4.902V17.696Z" fill="#CD9663"/><path fill-rule="evenodd" clip-rule="evenodd" d="M50.773 18.87v-7.438h2.779c.6 0 1.106.068 1.52.203.412.132.723.351.93.657.212.306.318.72.318 1.242 0 .42-.084.803-.254 1.147-.166.345-.437.62-.815.824-.17.092-.367.164-.59.215l.728.995c.17.23.347.475.534.736l.556.761c.184.247.344.466.482.658h-1.694c-.208-.3-.41-.586-.604-.861-.19-.278-.377-.548-.56-.808l-.774-1.111h-1.106v2.78h-1.45Zm1.45-3.912h1.059c.332 0 .609-.039.831-.115a.948.948 0 0 0 .508-.391c.113-.184.17-.433.17-.746 0-.243-.04-.438-.117-.584a.802.802 0 0 0-.302-.334 1.16 1.16 0 0 0-.418-.151 2.777 2.777 0 0 0-.45-.037h-1.28v2.358Z" fill="#CD9663"/></svg><svg fill="none" viewBox="0 0 24 24" id="loading" xmlns="http://www.w3.org/2000/svg"><g clip-rule="evenodd" fill="#000001" fill-rule="evenodd"><path d="M12 2.5a9.5 9.5 0 1 0 0 19 9.5 9.5 0 0 0 0-19zM1 12C1 5.925 5.925 1 12 1s11 4.925 11 11-4.925 11-11 11S1 18.075 1 12z" opacity=".2"/><path d="M11.25 1.75A.75.75 0 0 1 12 1c6.075 0 11 4.925 11 11a.75.75 0 0 1-1.5 0A9.5 9.5 0 0 0 12 2.5a.75.75 0 0 1-.75-.75z"/></g></svg><svg fill="currentColor" viewBox="0 0 24 24" id="location" xmlns="http://www.w3.org/2000/svg"><path fill-rule="evenodd" clip-rule="evenodd" d="M11.445 23.832 12 23l.555.832a1 1 0 0 1-1.11 0Zm0 0L12 23c.555.832.556.831.556.831l.002-.001.007-.005.023-.015.082-.057c.072-.05.174-.12.302-.214a31.433 31.433 0 0 0 4.254-3.727C19.516 17.397 22 13.903 22 10a10 10 0 0 0-20 0c0 3.902 2.484 7.396 4.774 9.813a31.428 31.428 0 0 0 4.254 3.726 18.887 18.887 0 0 0 .384.27l.023.016.007.005.003.002ZM8 10a4 4 0 1 1 8 0 4 4 0 0 1-8 0Z"/></svg><svg fill="none" viewBox="0 0 24 24" id="location-full" xmlns="http://www.w3.org/2000/svg"><path d="M21 10c0 7-9 13-9 13s-9-6-9-13a9 9 0 1 1 18 0Z" stroke="#444" stroke-width="2" stroke-linecap="round" stroke-linejoin="round"/><path d="M12 13a3 3 0 1 0 0-6 3 3 0 0 0 0 6Z" stroke="#444" stroke-width="2" stroke-linecap="round" stroke-linejoin="round"/></svg><svg fill="none" viewBox="0 0 14 14" id="logo-discus" xmlns="http://www.w3.org/2000/svg"><path d="M13 6.667a5.587 5.587 0 0 1-.6 2.533 5.667 5.667 0 0 1-5.067 3.133 5.588 5.588 0 0 1-2.533-.6L1 13l1.267-3.8a5.586 5.586 0 0 1-.6-2.533A5.667 5.667 0 0 1 4.8 1.6 5.587 5.587 0 0 1 7.333 1h.334A5.653 5.653 0 0 1 13 6.333v.334Z" fill="#AAA" stroke="#AAA" stroke-width="2" stroke-linecap="round" stroke-linejoin="round"/></svg><svg fill="none" viewBox="0 0 14 12" id="logo-likes-grey" xmlns="http://www.w3.org/2000/svg"><path d="M12.075 1.884a3.172 3.172 0 0 0-1.025-.654 3.286 3.286 0 0 0-2.417 0 3.171 3.171 0 0 0-1.025.654L7 2.465l-.609-.58A3.234 3.234 0 0 0 4.158 1c-.837 0-1.64.318-2.233.884A2.95 2.95 0 0 0 1 4.018c0 .8.333 1.567.925 2.133l.609.582L7 11l4.466-4.267.609-.582c.293-.28.526-.612.684-.979a2.9 2.9 0 0 0 0-2.31 3.013 3.013 0 0 0-.684-.978Z" fill="#AAA" stroke="#AAA" stroke-width="2" stroke-linecap="round" stroke-linejoin="round"/></svg><svg fill="none" viewBox="0 0 24 24" id="mail" xmlns="http://www.w3.org/2000/svg"><path d="M4 4h16c1.1 0 2 .9 2 2v12c0 1.1-.9 2-2 2H4c-1.1 0-2-.9-2-2V6c0-1.1.9-2 2-2Z"/><path d="m22 6-10 7L2 6"/></svg><svg fill="none" viewBox="0 0 24 24" id="map" xmlns="http://www.w3.org/2000/svg"><path d="M21 10c0 7-9 13-9 13s-9-6-9-13a9 9 0 1 1 18 0Z" stroke="#444" stroke-width="2" stroke-linecap="round" stroke-linejoin="round"/><path d="M12 13a3 3 0 1 0 0-6 3 3 0 0 0 0 6Z" stroke="#444" stroke-width="2" stroke-linecap="round" stroke-linejoin="round"/></svg><svg fill="none" viewBox="0 0 24 24" id="more" xmlns="http://www.w3.org/2000/svg"><path d="M12 13a1 1 0 1 0 0-2 1 1 0 0 0 0 2ZM12 6a1 1 0 1 0 0-2 1 1 0 0 0 0 2ZM12 20a1 1 0 1 0 0-2 1 1 0 0 0 0 2Z" stroke="#444" stroke-width="2" stroke-linecap="round" stroke-linejoin="round"/></svg><svg fill="none" viewBox="0 0 24 24" id="phone" xmlns="http://www.w3.org/2000/svg"><path d="M17 2H7a2 2 0 0 0-2 2v16a2 2 0 0 0 2 2h10a2 2 0 0 0 2-2V4a2 2 0 0 0-2-2ZM12 18h.01"/></svg><svg fill="none" viewBox="0 0 24 24" id="plus" xmlns="http://www.w3.org/2000/svg"><path d="M12 5v14" stroke="#CD9663" stroke-width="2.2" stroke-linecap="round" stroke-linejoin="round"/><path d="M5 12h14" stroke="#CD9663" stroke-width="2" stroke-linecap="round" stroke-linejoin="round"/></svg><svg fill="none" viewBox="0 0 24 24" id="profile" xmlns="http://www.w3.org/2000/svg"><mask id="bja" style="mask-type:alpha" maskUnits="userSpaceOnUse" x="1" y="1" width="22" height="22"><rect x="1" y="1" width="22" height="22" rx="11" fill="#C4C4C4"/></mask><g mask="url(#bja)" stroke="#AAA" stroke-width="2"><circle cx="12" cy="9.5" r="3.5"/><path d="M19 21.364c0 .794-.149 1.261-.34 1.553-.182.277-.474.505-.994.682-.539.183-1.266.29-2.236.346C14.466 24 13.334 24 12 24c-1.333 0-2.469 0-3.437-.049-.974-.048-1.714-.143-2.266-.307-.542-.161-.828-.367-.993-.587-.165-.22-.304-.58-.304-1.239C5 18.358 8.209 16 12 16c1.9 0 3.682.498 4.96 1.413 1.25.894 2.04 2.194 2.04 3.95Z"/><rect x="2" y="2" width="20" height="20" rx="10"/></g></svg><svg fill="none" viewBox="0 0 96 16" id="rating" xmlns="http://www.w3.org/2000/svg"><path d="m8 2 1.854 3.95L14 6.587l-3 3.072.708 4.341L8 11.95 4.292 14 5 9.66 2 6.586l4.146-.637L8 2ZM28 2l1.854 3.95L34 6.587l-3 3.072.708 4.341L28 11.95 24.292 14 25 9.66l-3-3.073 4.146-.637L28 2ZM48 2l1.854 3.95L54 6.587l-3 3.072.708 4.341L48 11.95 44.292 14 45 9.66l-3-3.073 4.146-.637L48 2ZM68 2l1.854 3.95L74 6.587l-3 3.072.708 4.341L68 11.95 64.292 14 65 9.66l-3-3.073 4.146-.637L68 2ZM88 2l1.854 3.95L94 6.587l-3 3.072.708 4.341L88 11.95 84.292 14 85 9.66l-3-3.073 4.146-.637L88 2Z" fill="#CD9663" stroke="#CD9663" stroke-width="2" stroke-linecap="round" stroke-linejoin="round"/></svg><svg fill="none" viewBox="0 0 14 14" id="rating-star" xmlns="http://www.w3.org/2000/svg"><path d="m7 1 1.854 3.95L13 5.587l-3 3.072.708 4.341L7 10.95 3.292 13 4 8.66 1 5.586l4.146-.637L7 1Z" fill="#CD9663" stroke="#CD9663" stroke-width="2" stroke-linecap="round" stroke-linejoin="round"/></svg><svg viewBox="0 0 24 24" id="reveal" xmlns="http://www.w3.org/2000/svg"><path fill-rule="evenodd" clip-rule="evenodd" d="m5.414 20 5.293-5.293a1 1 0 0 0-1.414-1.414L4 18.586V15a1 1 0 1 0-2 0v6a.997.997 0 0 0 .29.705l.005.004c.194.193.448.29.702.291H9a1 1 0 1 0 0-2H5.414ZM21.924 2.617a.997.997 0 0 0-.215-.322l-.004-.004A.997.997 0 0 0 21 2h-6a1 1 0 1 0 0 2h3.586l-5.293 5.293a1 1 0 0 0 1.414 1.414L20 5.414V9a1 1 0 1 0 2 0V2.997a.996.996 0 0 0-.076-.38Z"/></svg><svg fill="none" viewBox="0 0 4 4" id="round" xmlns="http://www.w3.org/2000/svg"><circle cx="2" cy="2" r="2" fill="#AAA"/></svg><svg fill="none" viewBox="0 0 24 24" id="search" xmlns="http://www.w3.org/2000/svg"><path d="M11 19a8 8 0 1 0 0-16 8 8 0 0 0 0 16ZM21 21l-4.35-4.35" stroke="#444" stroke-width="2" stroke-linecap="round" stroke-linejoin="round"/></svg><svg fill="none" viewBox="0 0 24 24" id="share" xmlns="http://www.w3.org/2000/svg"><path d="M18 8a3 3 0 1 0 0-6 3 3 0 0 0 0 6ZM6 15a3 3 0 1 0 0-6 3 3 0 0 0 0 6ZM18 22a3 3 0 1 0 0-6 3 3 0 0 0 0 6ZM8.59 13.51l6.83 3.98M15.41 6.51l-6.82 3.98" stroke="#CD9663" stroke-width="2" stroke-linecap="round" stroke-linejoin="round"/></svg><svg fill="none" viewBox="0 0 24 24" id="share-link" xmlns="http://www.w3.org/2000/svg"><path d="M14 8C8 8 4 14 3 20c4-6 7.833-7 11-7v4s7-5.5 7-6.5S14 4 14 4v4Z" stroke="#CD9663" stroke-width="2" stroke-linejoin="round"/></svg><svg viewBox="0 0 24 24" id="shopping-bag" xmlns="http://www.w3.org/2000/svg"><path d="m19.5 19 .98.196c.003-.01.005-.021.006-.032L19.5 19Zm1.5-9 .986.164A1 1 0 0 0 21 9v1ZM3 10V9a1 1 0 0 0-.986 1.164L3 10Zm1.5 9-.986.164.005.032L4.5 19ZM7.678 6.608l-.98-.196.98.196Zm8.644 0-.981.196.98-.196ZM10 14.5a1 1 0 1 0 0 2v-2Zm4 2a1 1 0 1 0 0-2v2ZM6.64 22h10.72v-2H6.64v2Zm13.846-2.836 1.5-9-1.972-.328-1.5 9 1.972.328ZM21 9H3v2h18V9ZM2.014 10.164l1.5 9 1.972-.328-1.5-9-1.972.328ZM17.36 22c.835 0 1.56-.45 2.056-.934.505-.493.924-1.165 1.065-1.87l-1.962-.392c-.046.23-.22.558-.5.831-.288.282-.54.365-.659.365v2ZM6.64 20c-.12 0-.37-.083-.659-.365-.28-.274-.454-.601-.5-.831l-1.962.392c.141.705.56 1.377 1.065 1.87.496.485 1.221.934 2.056.934v-2Zm1.34-9.804.679-3.392-1.961-.392-.679 3.392 1.962.392ZM9.64 6h4.72V4H9.64v2Zm5.701.804.678 3.392 1.962-.392-.679-3.392-1.961.392ZM14.361 6a1 1 0 0 1 .98.804l1.961-.392A3 3 0 0 0 14.36 4v2Zm-5.702.804A1 1 0 0 1 9.639 6V4a3 3 0 0 0-2.941 2.412l1.961.392ZM10 16.5h4v-2h-4v2Z"/></svg><svg fill="none" viewBox="0 0 24 24" id="shopping-bag-with-circul" xmlns="http://www.w3.org/2000/svg"><path d="M6 2 3 6v14a2 2 0 0 0 2 2h14a2 2 0 0 0 2-2V6l-3-4H6ZM3 6h18" stroke="#AAA" stroke-width="2" stroke-linecap="round" stroke-linejoin="round"/><path d="M16 10a4 4 0 1 1-8 0" stroke="#AAA" stroke-width="2" stroke-linecap="round" stroke-linejoin="round"/><rect x="16" width="8" height="8" rx="4" fill="#CD9663"/></svg><svg fill="none" viewBox="0 0 24 24" id="small-logo" xmlns="http://www.w3.org/2000/svg"><path d="M5.509 10.886h3.884v2.857H5.509V22H2.5V2h7.96v2.857H5.509v6.029ZM12.2 2h9.3v2.857h-3.145V22h-3.01V4.857H12.2V2Z" fill="#CD9663"/></svg><svg fill="none" viewBox="0 0 24 24" id="sorting-down" xmlns="http://www.w3.org/2000/svg"><path d="M12 6v12M15 15l-3 3-3-3" stroke="#444" stroke-width="1.5" stroke-linecap="round" stroke-linejoin="round"/></svg><svg fill="none" viewBox="0 0 24 24" id="sorting-top" xmlns="http://www.w3.org/2000/svg"><path d="M12 18V6M9 9l3-3 3 3" stroke="#444" stroke-width="1.5" stroke-linecap="round" stroke-linejoin="round"/></svg><svg fill="none" viewBox="0 0 24 24" id="sorts" xmlns="http://www.w3.org/2000/svg"><path d="M7 18V6M4 9l3-3 3 3M16 6v12M19 15l-3 3-3-3" stroke="#444" stroke-width="1.5" stroke-linecap="round" stroke-linejoin="round"/></svg><svg fill="none" viewBox="0 0 24 24" id="telegram" xmlns="http://www.w3.org/2000/svg"><g clip-path="url(#bxa)"><path d="M12 24c6.627 0 12-5.373 12-12S18.627 0 12 0 0 5.373 0 12s5.373 12 12 12Z" fill="#34AADF"/><path d="M4.994 11.896s6-2.463 8.081-3.33a334.16 334.16 0 0 1 3.503-1.456s1.249-.486 1.145.693c-.035.486-.313 2.185-.59 4.024-.416 2.6-.867 5.445-.867 5.445s-.07.797-.659.936c-.59.139-1.56-.485-1.734-.624-.139-.104-2.601-1.665-3.503-2.428-.243-.208-.52-.624.035-1.11a132.406 132.406 0 0 0 3.641-3.468c.417-.416.833-1.387-.901-.208-2.463 1.7-4.89 3.295-4.89 3.295s-.556.347-1.596.034c-1.04-.312-2.254-.728-2.254-.728s-.833-.52.59-1.075Z" fill="#fff"/></g><defs><clipPath id="bxa"><path fill="#fff" d="M0 0h24v24H0z"/></clipPath></defs></svg><svg fill="none" viewBox="0 0 24 24" id="trash" xmlns="http://www.w3.org/2000/svg"><path d="M3 6h18M19 6v14a2 2 0 0 1-2 2H7a2 2 0 0 1-2-2V6m3 0V4a2 2 0 0 1 2-2h4a2 2 0 0 1 2 2v2M10 11v6M14 11v6" stroke="#AAA" stroke-width="2" stroke-linecap="round" stroke-linejoin="round"/></svg><svg fill="none" viewBox="0 0 24 24" id="twitter" xmlns="http://www.w3.org/2000/svg"><g clip-path="url(#bza)"><rect width="24" height="24" rx="12" fill="#1DA1F2"/><path d="M20 7.04c-.588.26-1.22.436-1.885.516a3.29 3.29 0 0 0 1.443-1.817 6.555 6.555 0 0 1-2.084.797A3.283 3.283 0 0 0 11.88 9.53 9.323 9.323 0 0 1 5.114 6.1a3.282 3.282 0 0 0 1.016 4.382 3.276 3.276 0 0 1-1.487-.41v.042a3.284 3.284 0 0 0 2.634 3.217 3.304 3.304 0 0 1-1.483.057 3.284 3.284 0 0 0 3.067 2.278A6.589 6.589 0 0 1 4 17.026 9.286 9.286 0 0 0 9.031 18.5c6.04 0 9.34-5 9.34-9.337 0-.14-.003-.283-.01-.424A6.672 6.672 0 0 0 20 7.041L20 7.04Z" fill="#fff"/></g><defs><clipPath id="bza"><path fill="#fff" d="M0 0h24v24H0z"/></clipPath></defs></svg><svg fill="none" viewBox="0 0 40 40" id="user" xmlns="http://www.w3.org/2000/svg"><mask id="cba" style="mask-type:alpha" maskUnits="userSpaceOnUse" x="1" y="1" width="38" height="38"><rect x="1" y="1" width="38" height="38" rx="19" fill="#C4C4C4"/></mask><g mask="url(#cba)" fill="#CD9663"><path d="M27 16a7 7 0 1 1-14 0 7 7 0 0 1 14 0ZM20 24c-6.158 0-11.387 3.976-13.261 9.5L20 39l13.216-5.63C31.304 27.913 26.11 24 20 24Z"/><path fill-rule="evenodd" clip-rule="evenodd" d="M3 20c0 9.389 7.611 17 17 17s17-7.611 17-17S29.389 3 20 3 3 10.611 3 20ZM20 1C9.507 1 1 9.507 1 20s8.507 19 19 19 19-8.507 19-19S30.493 1 20 1Z"/></g></svg><svg fill="none" viewBox="0 0 16 16" id="user-logo-sm" xmlns="http://www.w3.org/2000/svg"><circle cx="8" cy="4.25" r="2.25" fill="#AAA" stroke="#AAA" stroke-width="2"/><path d="M13 13c0 1-1.686 1-5 1s-5 0-5-1c0-1.898 2.429-3.5 5-3.5s5 1.602 5 3.5Z" fill="#AAA" stroke="#AAA" stroke-width="2"/></svg><svg fill="none" viewBox="0 0 14 12" id="view_logo" xmlns="http://www.w3.org/2000/svg"><path fill-rule="evenodd" clip-rule="evenodd" d="M10.5 0h-7C1.567 0 0 1.343 0 3v6c0 1.657 1.567 3 3.5 3h7c1.933 0 3.5-1.343 3.5-3V3c0-1.657-1.567-3-3.5-3ZM6.72 5.016a1.5 1.5 0 1 0-.44 2.968 1.5 1.5 0 0 0 .44-2.968ZM4.888 3.393a3.5 3.5 0 1 1 3.224 6.214 3.5 3.5 0 0 1-3.224-6.214ZM11 2a1 1 0 1 0 0 2h.01a1 1 0 1 0 0-2H11Z" fill="#AAA"/></svg><svg fill="none" viewBox="0 0 92 93" id="vk" xmlns="http://www.w3.org/2000/svg"><rect fill="#2787f5" height="91.56" rx="20" width="91.56" y=".804"/><path clip-rule="evenodd" d="M72.496 33.4c.387-1.21 0-2.1-1.841-2.1h-6.09c-1.548 0-2.262.77-2.65 1.616 0 0-3.096 7.08-7.483 11.68-1.419 1.332-2.064 1.755-2.838 1.755-.387 0-.948-.423-.948-1.634V33.401c0-1.453-.449-2.1-1.74-2.1h-9.569c-.967 0-1.55.674-1.55 1.313 0 1.377 2.194 1.694 2.42 5.567v8.412c0 1.845-.355 2.18-1.129 2.18-2.064 0-7.086-7.113-10.064-15.252-.584-1.581-1.17-2.22-2.725-2.22h-6.09c-1.74 0-2.088.768-2.088 1.615 0 1.513 2.065 9.017 9.613 18.942 5.032 6.778 12.121 10.452 18.573 10.452 3.87 0 4.35-.816 4.35-2.221v-5.123c0-1.632.366-1.958 1.592-1.958.903 0 2.451.424 6.064 3.692 4.129 3.873 4.81 5.61 7.132 5.61h6.09c1.74 0 2.61-.816 2.108-2.426-.55-1.605-2.521-3.934-5.137-6.694-1.42-1.574-3.548-3.268-4.193-4.116-.903-1.089-.645-1.573 0-2.541 0 0 7.419-9.804 8.193-13.132z" fill="#fff" fill-rule="evenodd"/></svg><svg fill="none" viewBox="0 0 24 24" id="watsup" xmlns="http://www.w3.org/2000/svg"><rect width="24" height="24" rx="12" fill="#67BD5D"/><path d="M18.195 5.835A7.876 7.876 0 0 0 12.557 3.5h-.014c-4.365 0-7.956 3.565-7.956 7.896v.06a8.306 8.306 0 0 0 1.046 3.936L4.5 19.5l4.222-1.081a7.817 7.817 0 0 0 3.809.951c4.38-.024 7.972-3.608 7.969-7.956a7.822 7.822 0 0 0-2.305-5.579ZM12.557 18.03a6.507 6.507 0 0 1-3.351-.908l-.262-.13-2.514.649.654-2.465-.174-.26a6.523 6.523 0 0 1-.99-3.454c0-3.598 2.983-6.56 6.61-6.56 3.625 0 6.61 2.962 6.61 6.56a6.555 6.555 0 0 1-3.124 5.573 6.38 6.38 0 0 1-3.438.995h-.021Zm3.851-4.8-.479-.216s-.697-.303-1.133-.52c-.043 0-.087-.043-.13-.043a.635.635 0 0 0-.306.087c-.092.054-.043.043-.653.735a.24.24 0 0 1-.218.13h-.044a.333.333 0 0 1-.174-.087l-.218-.086a4.234 4.234 0 0 1-1.263-.822c-.087-.086-.218-.173-.305-.26a4.847 4.847 0 0 1-.828-1.037l-.044-.087a.63.63 0 0 1-.087-.173.322.322 0 0 1 .044-.216c.04-.065.174-.216.305-.346.13-.13.13-.216.218-.302a.531.531 0 0 0 .087-.433 16.82 16.82 0 0 0-.697-1.643.506.506 0 0 0-.306-.216h-.479c-.087 0-.174.043-.261.043l-.044.043c-.087.043-.174.13-.261.173-.087.043-.13.173-.218.26a2.194 2.194 0 0 0-.48 1.34c.005.343.08.681.218.995l.044.13a7.21 7.21 0 0 0 1.612 2.205l.175.173c.126.104.243.22.348.346a7.8 7.8 0 0 0 3.133 1.643c.13.043.305.043.436.087h.435c.228-.012.451-.07.654-.173.107-.049.209-.106.305-.174l.087-.086c.087-.086.174-.13.262-.216.085-.075.158-.163.217-.26.084-.193.143-.397.175-.605v-.303a.546.546 0 0 0-.13-.086" fill="#fff"/></svg></svg>