<?xml version="1.0" encoding="utf-8"?><svg viewBox="0 0 40 40" xmlns="http://www.w3.org/2000/svg" xmlns:xlink="http://www.w3.org/1999/xlink"><style>:root>svg{display:none}:root>svg:target{display:block}</style><svg fill="none" viewBox="0 0 24 24" id="arrow" xmlns="http://www.w3.org/2000/svg"><path d="m18 9-6 6-6-6" stroke="#444" stroke-width="1.5" stroke-linecap="round" stroke-linejoin="round"/></svg><svg fill="none" viewBox="0 0 24 24" id="camera" xmlns="http://www.w3.org/2000/svg"><path d="M17 3H7C4.239 3 2 5.015 2 7.5v9C2 18.985 4.239 21 7 21h10c2.761 0 5-2.015 5-4.5v-9C22 5.015 19.761 3 17 3Z"/><path d="M15.457 11.913a4 4 0 1 1-7.912 1.174 4 4 0 0 1 7.912-1.174ZM17.5 7.5h.01"/></svg><svg fill="none" viewBox="0 0 24 24" id="catalog" xmlns="http://www.w3.org/2000/svg"><path d="M14 17a7 7 0 1 0 0-14 7 7 0 0 0 0 14ZM22 18l-3-3M2 11h.5M2 16h2.5M2 21h10"/></svg><svg fill="none" viewBox="0 0 14 10" id="checkbox" xmlns="http://www.w3.org/2000/svg"><path d="M13 1 4.75 9 1 5.364" stroke="#CD9663" stroke-width="2" stroke-linecap="round" stroke-linejoin="round"/></svg><svg viewBox="0 0 24 24" id="collapse" xmlns="http://www.w3.org/2000/svg"><path fill-rule="evenodd" clip-rule="evenodd" d="M10.924 13.617A.997.997 0 0 0 10 13H4a1 1 0 1 0 0 2h3.586l-5.293 5.293a1 1 0 1 0 1.414 1.414L9 16.414V20a1 1 0 1 0 2 0v-6.003a.996.996 0 0 0-.076-.38ZM16.414 9l5.293-5.293a1 1 0 0 0-1.414-1.414L15 7.586V4a1 1 0 1 0-2 0v6a.997.997 0 0 0 .997 1H20a1 1 0 1 0 0-2h-3.586Z"/></svg><svg fill="none" viewBox="0 0 24 24" id="cross" xmlns="http://www.w3.org/2000/svg"><path fill-rule="evenodd" clip-rule="evenodd" d="M18.707 6.707a1 1 0 0 0-1.414-1.414L12 10.586 6.707 5.293a1 1 0 0 0-1.414 1.414L10.586 12l-5.293 5.293a1 1 0 1 0 1.414 1.414L12 13.414l5.293 5.293a1 1 0 0 0 1.414-1.414L13.414 12l5.293-5.293Z" fill="#AAA"/></svg><svg fill="none" viewBox="0 0 24 24" id="external-link" xmlns="http://www.w3.org/2000/svg"><path d="M18 13v6a2 2 0 0 1-2 2H5a2 2 0 0 1-2-2V8a2 2 0 0 1 2-2h6M15 3h6v6M10 14 21 3" stroke="#CD9663" stroke-width="2" stroke-linecap="round" stroke-linejoin="round"/></svg><svg fill="none" viewBox="0 0 24 24" id="facebook" xmlns="http://www.w3.org/2000/svg"><g clip-path="url(#ha)"><path d="M12 24c6.627 0 12-5.373 12-12S18.627 0 12 0 0 5.373 0 12s5.373 12 12 12Z" fill="#3C5A9A"/><path d="M15.902 3.683h-2.658c-1.578 0-3.333.664-3.333 2.95.008.797 0 1.56 0 2.419H8.086v2.904h1.882v8.36h3.457v-8.415h2.282l.207-2.857h-2.548s.005-1.271 0-1.64c0-.904.94-.852.996-.852h1.541V3.683h-.001Z" fill="#fff"/></g><defs><clipPath id="ha"><path fill="#fff" d="M0 0h24v24H0z"/></clipPath></defs></svg><svg fill="none" viewBox="0 0 25 24" id="feed" xmlns="http://www.w3.org/2000/svg"><g stroke="#AAA" stroke-width="2" stroke-linecap="round" stroke-linejoin="round"><path d="M19.5 3h-14a2 2 0 0 0-2 2v14a2 2 0 0 0 2 2h14a2 2 0 0 0 2-2V5a2 2 0 0 0-2-2ZM3.5 9h18"/></g></svg><svg fill="none" viewBox="0 0 24 24" id="heart" xmlns="http://www.w3.org/2000/svg"><path d="M20.458 4.591a5.255 5.255 0 0 0-1.708-1.177 5.122 5.122 0 0 0-4.028 0 5.255 5.255 0 0 0-1.708 1.177L12 5.638 10.986 4.59a5.182 5.182 0 0 0-3.722-1.59 5.183 5.183 0 0 0-3.722 1.59A5.52 5.52 0 0 0 2 8.431a5.52 5.52 0 0 0 1.542 3.841l1.014 1.047L12 21l7.444-7.681 1.014-1.047a5.446 5.446 0 0 0 1.141-1.761 5.581 5.581 0 0 0 0-4.158 5.445 5.445 0 0 0-1.141-1.762v0Z" stroke="#CD9663" stroke-width="2" stroke-linecap="round" stroke-linejoin="round"/></svg><svg fill="none" viewBox="0 0 25 24" id="home" xmlns="http://www.w3.org/2000/svg"><path d="M3.5 10.956A4 4 0 0 1 5.044 7.8L12.5 2l7.456 5.799a4 4 0 0 1 1.544 3.157V20a2 2 0 0 1-2 2h-14a2 2 0 0 1-2-2v-9.044Z" stroke="#AAA" stroke-width="2" stroke-linecap="round" stroke-linejoin="round"/><path d="M9.5 21v-8h6v8" stroke="#AAA" stroke-width="2" stroke-linecap="round" stroke-linejoin="round"/></svg><svg fill="none" viewBox="0 0 24 24" id="location" xmlns="http://www.w3.org/2000/svg"><path fill-rule="evenodd" clip-rule="evenodd" d="M11.445 23.832 12 23l.555.832a1 1 0 0 1-1.11 0Zm0 0L12 23c.555.832.556.831.556.831l.002-.001.007-.005.023-.015.082-.057c.072-.05.174-.12.302-.214a31.433 31.433 0 0 0 4.254-3.727C19.516 17.397 22 13.903 22 10a10 10 0 0 0-20 0c0 3.902 2.484 7.396 4.774 9.813a31.428 31.428 0 0 0 4.254 3.726 18.887 18.887 0 0 0 .384.27l.023.016.007.005.003.002ZM8 10a4 4 0 1 1 8 0 4 4 0 0 1-8 0Z" fill="#CD9663"/></svg><svg fill="none" viewBox="0 0 24 24" id="map" xmlns="http://www.w3.org/2000/svg"><path d="M21 10c0 7-9 13-9 13s-9-6-9-13a9 9 0 1 1 18 0Z" stroke="#444" stroke-width="2" stroke-linecap="round" stroke-linejoin="round"/><path d="M12 13a3 3 0 1 0 0-6 3 3 0 0 0 0 6Z" stroke="#444" stroke-width="2" stroke-linecap="round" stroke-linejoin="round"/></svg><svg fill="none" viewBox="0 0 24 24" id="more" xmlns="http://www.w3.org/2000/svg"><path d="M12 13a1 1 0 1 0 0-2 1 1 0 0 0 0 2ZM12 6a1 1 0 1 0 0-2 1 1 0 0 0 0 2ZM12 20a1 1 0 1 0 0-2 1 1 0 0 0 0 2Z" stroke="#444" stroke-width="2" stroke-linecap="round" stroke-linejoin="round"/></svg><svg fill="none" viewBox="0 0 24 24" id="profile" xmlns="http://www.w3.org/2000/svg"><mask id="oa" style="mask-type:alpha" maskUnits="userSpaceOnUse" x="1" y="1" width="22" height="22"><rect x="1" y="1" width="22" height="22" rx="11" fill="#C4C4C4"/></mask><g mask="url(#oa)" stroke="#AAA" stroke-width="2"><circle cx="12" cy="9.5" r="3.5"/><path d="M19 21.364c0 .794-.149 1.261-.34 1.553-.182.277-.474.505-.994.682-.539.183-1.266.29-2.236.346C14.466 24 13.334 24 12 24c-1.333 0-2.469 0-3.437-.049-.974-.048-1.714-.143-2.266-.307-.542-.161-.828-.367-.993-.587-.165-.22-.304-.58-.304-1.239C5 18.358 8.209 16 12 16c1.9 0 3.682.498 4.96 1.413 1.25.894 2.04 2.194 2.04 3.95Z"/><rect x="2" y="2" width="20" height="20" rx="10"/></g></svg><svg fill="none" viewBox="0 0 24 24" id="search" xmlns="http://www.w3.org/2000/svg"><path d="M11 19a8 8 0 1 0 0-16 8 8 0 0 0 0 16ZM21 21l-4.35-4.35" stroke="#444" stroke-width="2" stroke-linecap="round" stroke-linejoin="round"/></svg><svg fill="none" viewBox="0 0 24 24" id="share" xmlns="http://www.w3.org/2000/svg"><path d="M18 8a3 3 0 1 0 0-6 3 3 0 0 0 0 6ZM6 15a3 3 0 1 0 0-6 3 3 0 0 0 0 6ZM18 22a3 3 0 1 0 0-6 3 3 0 0 0 0 6ZM8.59 13.51l6.83 3.98M15.41 6.51l-6.82 3.98" stroke="#CD9663" stroke-width="2" stroke-linecap="round" stroke-linejoin="round"/></svg><svg fill="none" viewBox="0 0 24 24" id="shopping-bag" xmlns="http://www.w3.org/2000/svg"><path d="M6 2 3 6v14a2 2 0 0 0 2 2h14a2 2 0 0 0 2-2V6l-3-4H6ZM3 6h18" stroke="#CD9663" stroke-width="2" stroke-linecap="round" stroke-linejoin="round"/><path d="M16 10a4 4 0 1 1-8 0" stroke="#CD9663" stroke-width="2" stroke-linecap="round" stroke-linejoin="round"/></svg><svg fill="none" viewBox="0 0 24 24" id="shopping-bag-with-circul" xmlns="http://www.w3.org/2000/svg"><path d="M6 2 3 6v14a2 2 0 0 0 2 2h14a2 2 0 0 0 2-2V6l-3-4H6ZM3 6h18" stroke="#AAA" stroke-width="2" stroke-linecap="round" stroke-linejoin="round"/><path d="M16 10a4 4 0 1 1-8 0" stroke="#AAA" stroke-width="2" stroke-linecap="round" stroke-linejoin="round"/><rect x="16" width="8" height="8" rx="4" fill="#CD9663"/></svg><svg fill="none" viewBox="0 0 24 24" id="telegram" xmlns="http://www.w3.org/2000/svg"><g clip-path="url(#ta)"><path d="M12 24c6.627 0 12-5.373 12-12S18.627 0 12 0 0 5.373 0 12s5.373 12 12 12Z" fill="#34AADF"/><path d="M4.994 11.896s6-2.463 8.081-3.33a334.16 334.16 0 0 1 3.503-1.456s1.249-.486 1.145.693c-.035.486-.313 2.185-.59 4.024-.416 2.6-.867 5.445-.867 5.445s-.07.797-.659.936c-.59.139-1.56-.485-1.734-.624-.139-.104-2.601-1.665-3.503-2.428-.243-.208-.52-.624.035-1.11a132.406 132.406 0 0 0 3.641-3.468c.417-.416.833-1.387-.901-.208-2.463 1.7-4.89 3.295-4.89 3.295s-.556.347-1.596.034c-1.04-.312-2.254-.728-2.254-.728s-.833-.52.59-1.075Z" fill="#fff"/></g><defs><clipPath id="ta"><path fill="#fff" d="M0 0h24v24H0z"/></clipPath></defs></svg><svg fill="none" viewBox="0 0 24 24" id="twitter" xmlns="http://www.w3.org/2000/svg"><g clip-path="url(#ua)"><rect width="24" height="24" rx="12" fill="#1DA1F2"/><path d="M20 7.04c-.588.26-1.22.436-1.885.516a3.29 3.29 0 0 0 1.443-1.817 6.555 6.555 0 0 1-2.084.797A3.283 3.283 0 0 0 11.88 9.53 9.323 9.323 0 0 1 5.114 6.1a3.282 3.282 0 0 0 1.016 4.382 3.276 3.276 0 0 1-1.487-.41v.042a3.284 3.284 0 0 0 2.634 3.217 3.304 3.304 0 0 1-1.483.057 3.284 3.284 0 0 0 3.067 2.278A6.589 6.589 0 0 1 4 17.026 9.286 9.286 0 0 0 9.031 18.5c6.04 0 9.34-5 9.34-9.337 0-.14-.003-.283-.01-.424A6.672 6.672 0 0 0 20 7.041L20 7.04Z" fill="#fff"/></g><defs><clipPath id="ua"><path fill="#fff" d="M0 0h24v24H0z"/></clipPath></defs></svg><svg fill="none" viewBox="0 0 40 40" id="user" xmlns="http://www.w3.org/2000/svg"><mask id="va" style="mask-type:alpha" maskUnits="userSpaceOnUse" x="1" y="1" width="38" height="38"><rect x="1" y="1" width="38" height="38" rx="19" fill="#C4C4C4"/></mask><g mask="url(#va)"><circle cx="20" cy="16" r="7" fill="#CD9663"/><circle cx="20" cy="38" r="14" fill="#CD9663"/><rect x="2" y="2" width="36" height="36" rx="18" stroke="#CD9663" stroke-width="2"/></g></svg><svg fill="none" viewBox="0 0 24 24" id="watsup" xmlns="http://www.w3.org/2000/svg"><rect width="24" height="24" rx="12" fill="#67BD5D"/><path d="M18.195 5.835A7.876 7.876 0 0 0 12.557 3.5h-.014c-4.365 0-7.956 3.565-7.956 7.896v.06a8.306 8.306 0 0 0 1.046 3.936L4.5 19.5l4.222-1.081a7.817 7.817 0 0 0 3.809.951c4.38-.024 7.972-3.608 7.969-7.956a7.822 7.822 0 0 0-2.305-5.579ZM12.557 18.03a6.507 6.507 0 0 1-3.351-.908l-.262-.13-2.514.649.654-2.465-.174-.26a6.523 6.523 0 0 1-.99-3.454c0-3.598 2.983-6.56 6.61-6.56 3.625 0 6.61 2.962 6.61 6.56a6.555 6.555 0 0 1-3.124 5.573 6.38 6.38 0 0 1-3.438.995h-.021Zm3.851-4.8-.479-.216s-.697-.303-1.133-.52c-.043 0-.087-.043-.13-.043a.635.635 0 0 0-.306.087c-.092.054-.043.043-.653.735a.24.24 0 0 1-.218.13h-.044a.333.333 0 0 1-.174-.087l-.218-.086a4.234 4.234 0 0 1-1.263-.822c-.087-.086-.218-.173-.305-.26a4.847 4.847 0 0 1-.828-1.037l-.044-.087a.63.63 0 0 1-.087-.173.322.322 0 0 1 .044-.216c.04-.065.174-.216.305-.346.13-.13.13-.216.218-.302a.531.531 0 0 0 .087-.433 16.82 16.82 0 0 0-.697-1.643.506.506 0 0 0-.306-.216h-.479c-.087 0-.174.043-.261.043l-.044.043c-.087.043-.174.13-.261.173-.087.043-.13.173-.218.26a2.194 2.194 0 0 0-.48 1.34c.005.343.08.681.218.995l.044.13a7.21 7.21 0 0 0 1.612 2.205l.175.173c.126.104.243.22.348.346a7.8 7.8 0 0 0 3.133 1.643c.13.043.305.043.436.087h.435c.228-.012.451-.07.654-.173.107-.049.209-.106.305-.174l.087-.086c.087-.086.174-.13.262-.216.085-.075.158-.163.217-.26.084-.193.143-.397.175-.605v-.303a.546.546 0 0 0-.13-.086" fill="#fff"/></svg></svg>